%TF.GenerationSoftware,KiCad,Pcbnew,9.0.6*%
%TF.CreationDate,2025-12-31T00:22:56-05:00*%
%TF.ProjectId,singingcard_routed,73696e67-696e-4676-9361-72645f726f75,1.0*%
%TF.SameCoordinates,Original*%
%TF.FileFunction,Soldermask,Top*%
%TF.FilePolarity,Negative*%
%FSLAX46Y46*%
G04 Gerber Fmt 4.6, Leading zero omitted, Abs format (unit mm)*
G04 Created by KiCad (PCBNEW 9.0.6) date 2025-12-31 00:22:56*
%MOMM*%
%LPD*%
G01*
G04 APERTURE LIST*
G04 Aperture macros list*
%AMRoundRect*
0 Rectangle with rounded corners*
0 $1 Rounding radius*
0 $2 $3 $4 $5 $6 $7 $8 $9 X,Y pos of 4 corners*
0 Add a 4 corners polygon primitive as box body*
4,1,4,$2,$3,$4,$5,$6,$7,$8,$9,$2,$3,0*
0 Add four circle primitives for the rounded corners*
1,1,$1+$1,$2,$3*
1,1,$1+$1,$4,$5*
1,1,$1+$1,$6,$7*
1,1,$1+$1,$8,$9*
0 Add four rect primitives between the rounded corners*
20,1,$1+$1,$2,$3,$4,$5,0*
20,1,$1+$1,$4,$5,$6,$7,0*
20,1,$1+$1,$6,$7,$8,$9,0*
20,1,$1+$1,$8,$9,$2,$3,0*%
G04 Aperture macros list end*
%ADD10R,4.200000X3.800000*%
%ADD11RoundRect,0.225000X-0.225000X-0.250000X0.225000X-0.250000X0.225000X0.250000X-0.225000X0.250000X0*%
%ADD12RoundRect,0.250000X-0.250000X-0.475000X0.250000X-0.475000X0.250000X0.475000X-0.250000X0.475000X0*%
%ADD13R,2.000000X2.500000*%
%ADD14R,1.700000X1.700000*%
%ADD15C,1.700000*%
%ADD16C,1.520000*%
%ADD17RoundRect,0.200000X-0.200000X-0.275000X0.200000X-0.275000X0.200000X0.275000X-0.200000X0.275000X0*%
%ADD18R,1.700000X1.000000*%
%ADD19O,0.270000X1.500000*%
%ADD20O,1.500000X0.270000*%
%ADD21O,0.630000X2.250000*%
G04 APERTURE END LIST*
D10*
%TO.C,BT1*%
X181390000Y-127500000D03*
X152610000Y-127500000D03*
%TD*%
D11*
%TO.C,C1*%
X125225000Y-121500000D03*
X126775000Y-121500000D03*
%TD*%
D12*
%TO.C,C2*%
X125050000Y-133500000D03*
X126950000Y-133500000D03*
%TD*%
D11*
%TO.C,C3*%
X149225000Y-121500000D03*
X150775000Y-121500000D03*
%TD*%
%TO.C,C4*%
X131225000Y-115500000D03*
X132775000Y-115500000D03*
%TD*%
D12*
%TO.C,C5*%
X149050000Y-133500000D03*
X150950000Y-133500000D03*
%TD*%
D11*
%TO.C,C6*%
X159225000Y-117500000D03*
X160775000Y-117500000D03*
%TD*%
D13*
%TO.C,LS1*%
X109300000Y-141850000D03*
X120700000Y-141850000D03*
X120700000Y-133150000D03*
X109300000Y-133150000D03*
%TD*%
D14*
%TO.C,J2*%
X150000000Y-147000000D03*
D15*
X150000000Y-149540000D03*
%TD*%
D16*
%TO.C,R1*%
X112000000Y-117800000D03*
X112000000Y-121200000D03*
%TD*%
D17*
%TO.C,R2*%
X111175000Y-109500000D03*
X112825000Y-109500000D03*
%TD*%
%TO.C,R3*%
X131175000Y-109500000D03*
X132825000Y-109500000D03*
%TD*%
%TO.C,R4*%
X131175000Y-145500000D03*
X132825000Y-145500000D03*
%TD*%
D18*
%TO.C,SW1*%
X162850000Y-143600000D03*
X169150000Y-143600000D03*
X162850000Y-147400000D03*
X169150000Y-147400000D03*
%TD*%
D19*
%TO.C,U1*%
X135250000Y-131750000D03*
X135750000Y-131750000D03*
X136250000Y-131750000D03*
X136750000Y-131750000D03*
X137250000Y-131750000D03*
X137750000Y-131750000D03*
X138250000Y-131750000D03*
X138750000Y-131750000D03*
X139250000Y-131750000D03*
X139750000Y-131750000D03*
X140250000Y-131750000D03*
X140750000Y-131750000D03*
D20*
X142250000Y-130250000D03*
X142250000Y-129750000D03*
X142250000Y-129250000D03*
X142250000Y-128750000D03*
X142250000Y-128250000D03*
X142250000Y-127750000D03*
X142250000Y-127250000D03*
X142250000Y-126750000D03*
X142250000Y-126250000D03*
X142250000Y-125750000D03*
X142250000Y-125250000D03*
X142250000Y-124750000D03*
D19*
X140750000Y-123250000D03*
X140250000Y-123250000D03*
X139750000Y-123250000D03*
X139250000Y-123250000D03*
X138750000Y-123250000D03*
X138250000Y-123250000D03*
X137750000Y-123250000D03*
X137250000Y-123250000D03*
X136750000Y-123250000D03*
X136250000Y-123250000D03*
X135750000Y-123250000D03*
X135250000Y-123250000D03*
D20*
X133750000Y-124750000D03*
X133750000Y-125250000D03*
X133750000Y-125750000D03*
X133750000Y-126250000D03*
X133750000Y-126750000D03*
X133750000Y-127250000D03*
X133750000Y-127750000D03*
X133750000Y-128250000D03*
X133750000Y-128750000D03*
X133750000Y-129250000D03*
X133750000Y-129750000D03*
X133750000Y-130250000D03*
%TD*%
D21*
%TO.C,U2*%
X158090000Y-113030000D03*
X159370000Y-113030000D03*
X160630000Y-113030000D03*
X161900000Y-113030000D03*
X161900000Y-105970000D03*
X160630000Y-105970000D03*
X159370000Y-105970000D03*
X158090000Y-105970000D03*
%TD*%
M02*
