%TF.GenerationSoftware,KiCad,Pcbnew,9.0.6*%
%TF.CreationDate,2025-12-31T00:22:56-05:00*%
%TF.ProjectId,singingcard_routed,73696e67-696e-4676-9361-72645f726f75,1.0*%
%TF.SameCoordinates,Original*%
%TF.FileFunction,Copper,L2,Bot*%
%TF.FilePolarity,Positive*%
%FSLAX46Y46*%
G04 Gerber Fmt 4.6, Leading zero omitted, Abs format (unit mm)*
G04 Created by KiCad (PCBNEW 9.0.6) date 2025-12-31 00:22:56*
%MOMM*%
%LPD*%
G01*
G04 APERTURE LIST*
%TA.AperFunction,ComponentPad*%
%ADD10R,1.700000X1.700000*%
%TD*%
%TA.AperFunction,ComponentPad*%
%ADD11C,1.700000*%
%TD*%
%TA.AperFunction,ComponentPad*%
%ADD12C,1.520000*%
%TD*%
%TA.AperFunction,ViaPad*%
%ADD13C,0.600000*%
%TD*%
%TA.AperFunction,Conductor*%
%ADD14C,0.250000*%
%TD*%
G04 APERTURE END LIST*
D10*
%TO.P,J2,1*%
%TO.N,GPIO2_TAB*%
X150000000Y-147000000D03*
D11*
%TO.P,J2,2*%
%TO.N,GND*%
X150000000Y-149540000D03*
%TD*%
D12*
%TO.P,R1,1*%
%TO.N,GPIO0_LDR*%
X112000000Y-117800000D03*
%TO.P,R1,2*%
%TO.N,GND*%
X112000000Y-121200000D03*
%TD*%
D13*
%TO.N,GND*%
X134403900Y-136216300D03*
X157191000Y-134551700D03*
X157191000Y-126386700D03*
X135702100Y-128385000D03*
X133476700Y-121500000D03*
%TO.N,N$1*%
X139457000Y-127788300D03*
X139457000Y-147880300D03*
%TO.N,N$2*%
X140987900Y-126962200D03*
X140987900Y-146301700D03*
%TO.N,GPIO2_TAB*%
X137933000Y-121990300D03*
X137831300Y-141937500D03*
%TO.N,CSB*%
X135731100Y-144828100D03*
X135731100Y-133002000D03*
%TO.N,GPIO1_BTN*%
X136431200Y-139121600D03*
X136431200Y-121972000D03*
%TO.N,SPI_MISO*%
X147737500Y-130245300D03*
X147737500Y-111578300D03*
%TO.N,SPI_SCK*%
X148377000Y-129564300D03*
X148377000Y-104518300D03*
%TO.N,SPI_MOSI*%
X143981600Y-128241100D03*
X143981600Y-103511800D03*
%TD*%
D14*
%TO.N,GND*%
X134403900Y-128385000D02*
X134403900Y-136216300D01*
X133476700Y-121500000D02*
X133476700Y-127457800D01*
X133476700Y-127457800D02*
X134403900Y-128385000D01*
X135702100Y-128385000D02*
X134403900Y-128385000D01*
X157191000Y-134551700D02*
X157191000Y-126386700D01*
%TO.N,N$1*%
X139457000Y-147880300D02*
X139457000Y-127788300D01*
%TO.N,N$2*%
X140987900Y-146301700D02*
X140987900Y-126962200D01*
%TO.N,GPIO2_TAB*%
X137831300Y-141937500D02*
X137831300Y-122092000D01*
X137831300Y-122092000D02*
X137933000Y-121990300D01*
%TO.N,CSB*%
X135731100Y-144828100D02*
X135731100Y-133002000D01*
%TO.N,GPIO1_BTN*%
X136431200Y-139121600D02*
X136431200Y-121972000D01*
%TO.N,SPI_MISO*%
X147737500Y-111578300D02*
X147737500Y-130245300D01*
%TO.N,SPI_SCK*%
X148377000Y-104518300D02*
X148377000Y-129564300D01*
%TO.N,SPI_MOSI*%
X143981600Y-128241100D02*
X143981600Y-103511800D01*
%TD*%
M02*
