M48
; DRILL file {KiCad 9.0.6} date 2025-12-30T23:52:49-0500
; FORMAT={3:3/ absolute / metric / suppress leading zeros}
; #@! TF.CreationDate,2025-12-30T23:52:49-05:00
; #@! TF.GenerationSoftware,Kicad,Pcbnew,9.0.6
; #@! TF.FileFunction,MixedPlating,1,2
FMAT,2
METRIC,TZ
; #@! TA.AperFunction,Plated,PTH,ViaDrill
T1C0.300
; #@! TA.AperFunction,Plated,PTH,ComponentDrill
T2C0.762
; #@! TA.AperFunction,Plated,PTH,ComponentDrill
T3C1.000
%
G90
G05
T1
X132464Y-126836
X132825Y-110501
X132825Y-122173
X135979Y-121080
X135979Y-128383
X136990Y-124527
X136990Y-143600
X139563Y-124509
X139563Y-145053
X140885Y-127171
X140885Y-149540
X144482Y-129713
X144537Y-127750
X145194Y-147000
X145821Y-132827
X148377Y-122302
X152848Y-121795
T2
X112000Y-117800
X112000Y-121200
T3
X115000Y-147000
X115000Y-149540
X150000Y-147000
X150000Y-149540
M30
