M48
; DRILL file {KiCad 9.0.6} date 2025-12-31T00:22:58-0500
; FORMAT={-:-/ absolute / metric / decimal}
; #@! TF.CreationDate,2025-12-31T00:22:58-05:00
; #@! TF.GenerationSoftware,Kicad,Pcbnew,9.0.6
; #@! TF.FileFunction,MixedPlating,1,2
FMAT,2
METRIC
; #@! TA.AperFunction,Plated,PTH,ViaDrill
T1C0.300
; #@! TA.AperFunction,Plated,PTH,ComponentDrill
T2C0.762
; #@! TA.AperFunction,Plated,PTH,ComponentDrill
T3C1.000
%
G90
G05
T1
X133.477Y-121.5
X134.404Y-136.216
X135.702Y-128.385
X135.731Y-133.002
X135.731Y-144.828
X136.431Y-121.972
X136.431Y-139.122
X137.831Y-141.938
X137.933Y-121.99
X139.457Y-127.788
X139.457Y-147.88
X140.988Y-126.962
X140.988Y-146.302
X143.982Y-103.512
X143.982Y-128.241
X147.737Y-111.578
X147.737Y-130.245
X148.377Y-104.518
X148.377Y-129.564
X157.191Y-126.387
X157.191Y-134.552
T2
X112.0Y-117.8
X112.0Y-121.2
T3
X150.0Y-147.0
X150.0Y-149.54
M30
