%TF.GenerationSoftware,KiCad,Pcbnew,9.0.6*%
%TF.CreationDate,2025-12-31T11:43:19-05:00*%
%TF.ProjectId,singingcard,73696e67-696e-4676-9361-72642e6b6963,1.0*%
%TF.SameCoordinates,Original*%
%TF.FileFunction,Other,User*%
%FSLAX46Y46*%
G04 Gerber Fmt 4.6, Leading zero omitted, Abs format (unit mm)*
G04 Created by KiCad (PCBNEW 9.0.6) date 2025-12-31 11:43:19*
%MOMM*%
%LPD*%
G01*
G04 APERTURE LIST*
%ADD10C,0.050000*%
G04 APERTURE END LIST*
D10*
%TO.C,R2*%
X110520000Y-108770000D02*
X113480000Y-108770000D01*
X110520000Y-110230000D02*
X110520000Y-108770000D01*
X113480000Y-108770000D02*
X113480000Y-110230000D01*
X113480000Y-110230000D02*
X110520000Y-110230000D01*
%TO.C,C4*%
X130520000Y-114770000D02*
X133480000Y-114770000D01*
X130520000Y-116230000D02*
X130520000Y-114770000D01*
X133480000Y-114770000D02*
X133480000Y-116230000D01*
X133480000Y-116230000D02*
X130520000Y-116230000D01*
%TO.C,C3*%
X148520000Y-120770000D02*
X151480000Y-120770000D01*
X148520000Y-122230000D02*
X148520000Y-120770000D01*
X151480000Y-120770000D02*
X151480000Y-122230000D01*
X151480000Y-122230000D02*
X148520000Y-122230000D01*
%TO.C,C1*%
X124520000Y-120770000D02*
X127480000Y-120770000D01*
X124520000Y-122230000D02*
X124520000Y-120770000D01*
X127480000Y-120770000D02*
X127480000Y-122230000D01*
X127480000Y-122230000D02*
X124520000Y-122230000D01*
%TO.C,SW1*%
X161750000Y-142500000D02*
X170250000Y-142500000D01*
X161750000Y-148500000D02*
X161750000Y-142500000D01*
X170250000Y-142500000D02*
X170250000Y-148500000D01*
X170250000Y-148500000D02*
X161750000Y-148500000D01*
%TO.C,J2*%
X148230000Y-145230000D02*
X148230000Y-151320000D01*
X148230000Y-151320000D02*
X151770000Y-151320000D01*
X151770000Y-145230000D02*
X148230000Y-145230000D01*
X151770000Y-151320000D02*
X151770000Y-145230000D01*
%TO.C,C2*%
X124300000Y-132520000D02*
X127700000Y-132520000D01*
X124300000Y-134480000D02*
X124300000Y-132520000D01*
X127700000Y-132520000D02*
X127700000Y-134480000D01*
X127700000Y-134480000D02*
X124300000Y-134480000D01*
%TO.C,R3*%
X130520000Y-108770000D02*
X133480000Y-108770000D01*
X130520000Y-110230000D02*
X130520000Y-108770000D01*
X133480000Y-108770000D02*
X133480000Y-110230000D01*
X133480000Y-110230000D02*
X130520000Y-110230000D01*
%TO.C,C5*%
X148300000Y-132520000D02*
X151700000Y-132520000D01*
X148300000Y-134480000D02*
X148300000Y-132520000D01*
X151700000Y-132520000D02*
X151700000Y-134480000D01*
X151700000Y-134480000D02*
X148300000Y-134480000D01*
%TO.C,C6*%
X158520000Y-116770000D02*
X161480000Y-116770000D01*
X158520000Y-118230000D02*
X158520000Y-116770000D01*
X161480000Y-116770000D02*
X161480000Y-118230000D01*
X161480000Y-118230000D02*
X158520000Y-118230000D01*
%TO.C,R4*%
X130520000Y-144770000D02*
X133480000Y-144770000D01*
X130520000Y-146230000D02*
X130520000Y-144770000D01*
X133480000Y-144770000D02*
X133480000Y-146230000D01*
X133480000Y-146230000D02*
X130520000Y-146230000D01*
%TD*%
M02*
