M48
; DRILL file {KiCad 9.0.6} date 2025-12-30T23:05:58-0500
; FORMAT={-:-/ absolute / metric / decimal}
; #@! TF.CreationDate,2025-12-30T23:05:58-05:00
; #@! TF.GenerationSoftware,Kicad,Pcbnew,9.0.6
; #@! TF.FileFunction,MixedPlating,1,2
FMAT,2
METRIC
; #@! TA.AperFunction,Plated,PTH,ViaDrill
T1C0.300
; #@! TA.AperFunction,Plated,PTH,ComponentDrill
T2C0.762
; #@! TA.AperFunction,Plated,PTH,ComponentDrill
T3C1.000
%
G90
G05
T1
X132.464Y-126.836
X132.825Y-110.501
X132.825Y-122.173
X135.979Y-121.08
X135.979Y-128.383
X136.989Y-124.527
X136.989Y-143.6
X139.563Y-124.508
X139.563Y-145.053
X140.885Y-127.171
X140.885Y-149.54
X144.482Y-129.713
X144.537Y-127.75
X145.194Y-147.0
X145.821Y-132.827
X148.377Y-122.302
X152.848Y-121.795
T2
X112.0Y-117.8
X112.0Y-121.2
T3
X115.0Y-147.0
X115.0Y-149.54
X150.0Y-147.0
X150.0Y-149.54
M30
