%TF.GenerationSoftware,KiCad,Pcbnew,9.0.6*%
%TF.CreationDate,2025-12-31T11:43:19-05:00*%
%TF.ProjectId,singingcard,73696e67-696e-4676-9361-72642e6b6963,1.0*%
%TF.SameCoordinates,Original*%
%TF.FileFunction,AssemblyDrawing,Top*%
%FSLAX46Y46*%
G04 Gerber Fmt 4.6, Leading zero omitted, Abs format (unit mm)*
G04 Created by KiCad (PCBNEW 9.0.6) date 2025-12-31 11:43:19*
%MOMM*%
%LPD*%
G01*
G04 APERTURE LIST*
%ADD10C,0.150000*%
%ADD11C,0.060000*%
%ADD12C,0.080000*%
%ADD13C,0.100000*%
%ADD14C,0.250000*%
G04 APERTURE END LIST*
D10*
X111404761Y-112954819D02*
X110833333Y-112954819D01*
X111119047Y-112954819D02*
X111119047Y-111954819D01*
X111119047Y-111954819D02*
X111023809Y-112097676D01*
X111023809Y-112097676D02*
X110928571Y-112192914D01*
X110928571Y-112192914D02*
X110833333Y-112240533D01*
X112023809Y-111954819D02*
X112119047Y-111954819D01*
X112119047Y-111954819D02*
X112214285Y-112002438D01*
X112214285Y-112002438D02*
X112261904Y-112050057D01*
X112261904Y-112050057D02*
X112309523Y-112145295D01*
X112309523Y-112145295D02*
X112357142Y-112335771D01*
X112357142Y-112335771D02*
X112357142Y-112573866D01*
X112357142Y-112573866D02*
X112309523Y-112764342D01*
X112309523Y-112764342D02*
X112261904Y-112859580D01*
X112261904Y-112859580D02*
X112214285Y-112907200D01*
X112214285Y-112907200D02*
X112119047Y-112954819D01*
X112119047Y-112954819D02*
X112023809Y-112954819D01*
X112023809Y-112954819D02*
X111928571Y-112907200D01*
X111928571Y-112907200D02*
X111880952Y-112859580D01*
X111880952Y-112859580D02*
X111833333Y-112764342D01*
X111833333Y-112764342D02*
X111785714Y-112573866D01*
X111785714Y-112573866D02*
X111785714Y-112335771D01*
X111785714Y-112335771D02*
X111833333Y-112145295D01*
X111833333Y-112145295D02*
X111880952Y-112050057D01*
X111880952Y-112050057D02*
X111928571Y-112002438D01*
X111928571Y-112002438D02*
X112023809Y-111954819D01*
X112785714Y-112954819D02*
X112785714Y-111954819D01*
X112880952Y-112573866D02*
X113166666Y-112954819D01*
X113166666Y-112288152D02*
X112785714Y-112669104D01*
D11*
X111933333Y-109681927D02*
X111800000Y-109491451D01*
X111704762Y-109681927D02*
X111704762Y-109281927D01*
X111704762Y-109281927D02*
X111857143Y-109281927D01*
X111857143Y-109281927D02*
X111895238Y-109300975D01*
X111895238Y-109300975D02*
X111914285Y-109320022D01*
X111914285Y-109320022D02*
X111933333Y-109358118D01*
X111933333Y-109358118D02*
X111933333Y-109415260D01*
X111933333Y-109415260D02*
X111914285Y-109453356D01*
X111914285Y-109453356D02*
X111895238Y-109472403D01*
X111895238Y-109472403D02*
X111857143Y-109491451D01*
X111857143Y-109491451D02*
X111704762Y-109491451D01*
X112085714Y-109320022D02*
X112104762Y-109300975D01*
X112104762Y-109300975D02*
X112142857Y-109281927D01*
X112142857Y-109281927D02*
X112238095Y-109281927D01*
X112238095Y-109281927D02*
X112276190Y-109300975D01*
X112276190Y-109300975D02*
X112295238Y-109320022D01*
X112295238Y-109320022D02*
X112314285Y-109358118D01*
X112314285Y-109358118D02*
X112314285Y-109396213D01*
X112314285Y-109396213D02*
X112295238Y-109453356D01*
X112295238Y-109453356D02*
X112066666Y-109681927D01*
X112066666Y-109681927D02*
X112314285Y-109681927D01*
D10*
X130452380Y-118954819D02*
X129880952Y-118954819D01*
X130166666Y-118954819D02*
X130166666Y-117954819D01*
X130166666Y-117954819D02*
X130071428Y-118097676D01*
X130071428Y-118097676D02*
X129976190Y-118192914D01*
X129976190Y-118192914D02*
X129880952Y-118240533D01*
X131071428Y-117954819D02*
X131166666Y-117954819D01*
X131166666Y-117954819D02*
X131261904Y-118002438D01*
X131261904Y-118002438D02*
X131309523Y-118050057D01*
X131309523Y-118050057D02*
X131357142Y-118145295D01*
X131357142Y-118145295D02*
X131404761Y-118335771D01*
X131404761Y-118335771D02*
X131404761Y-118573866D01*
X131404761Y-118573866D02*
X131357142Y-118764342D01*
X131357142Y-118764342D02*
X131309523Y-118859580D01*
X131309523Y-118859580D02*
X131261904Y-118907200D01*
X131261904Y-118907200D02*
X131166666Y-118954819D01*
X131166666Y-118954819D02*
X131071428Y-118954819D01*
X131071428Y-118954819D02*
X130976190Y-118907200D01*
X130976190Y-118907200D02*
X130928571Y-118859580D01*
X130928571Y-118859580D02*
X130880952Y-118764342D01*
X130880952Y-118764342D02*
X130833333Y-118573866D01*
X130833333Y-118573866D02*
X130833333Y-118335771D01*
X130833333Y-118335771D02*
X130880952Y-118145295D01*
X130880952Y-118145295D02*
X130928571Y-118050057D01*
X130928571Y-118050057D02*
X130976190Y-118002438D01*
X130976190Y-118002438D02*
X131071428Y-117954819D01*
X132023809Y-117954819D02*
X132119047Y-117954819D01*
X132119047Y-117954819D02*
X132214285Y-118002438D01*
X132214285Y-118002438D02*
X132261904Y-118050057D01*
X132261904Y-118050057D02*
X132309523Y-118145295D01*
X132309523Y-118145295D02*
X132357142Y-118335771D01*
X132357142Y-118335771D02*
X132357142Y-118573866D01*
X132357142Y-118573866D02*
X132309523Y-118764342D01*
X132309523Y-118764342D02*
X132261904Y-118859580D01*
X132261904Y-118859580D02*
X132214285Y-118907200D01*
X132214285Y-118907200D02*
X132119047Y-118954819D01*
X132119047Y-118954819D02*
X132023809Y-118954819D01*
X132023809Y-118954819D02*
X131928571Y-118907200D01*
X131928571Y-118907200D02*
X131880952Y-118859580D01*
X131880952Y-118859580D02*
X131833333Y-118764342D01*
X131833333Y-118764342D02*
X131785714Y-118573866D01*
X131785714Y-118573866D02*
X131785714Y-118335771D01*
X131785714Y-118335771D02*
X131833333Y-118145295D01*
X131833333Y-118145295D02*
X131880952Y-118050057D01*
X131880952Y-118050057D02*
X131928571Y-118002438D01*
X131928571Y-118002438D02*
X132023809Y-117954819D01*
X132785714Y-118288152D02*
X132785714Y-118954819D01*
X132785714Y-118383390D02*
X132833333Y-118335771D01*
X132833333Y-118335771D02*
X132928571Y-118288152D01*
X132928571Y-118288152D02*
X133071428Y-118288152D01*
X133071428Y-118288152D02*
X133166666Y-118335771D01*
X133166666Y-118335771D02*
X133214285Y-118431009D01*
X133214285Y-118431009D02*
X133214285Y-118954819D01*
X134023809Y-118431009D02*
X133690476Y-118431009D01*
X133690476Y-118954819D02*
X133690476Y-117954819D01*
X133690476Y-117954819D02*
X134166666Y-117954819D01*
D11*
X131933333Y-115643832D02*
X131914285Y-115662880D01*
X131914285Y-115662880D02*
X131857143Y-115681927D01*
X131857143Y-115681927D02*
X131819047Y-115681927D01*
X131819047Y-115681927D02*
X131761904Y-115662880D01*
X131761904Y-115662880D02*
X131723809Y-115624784D01*
X131723809Y-115624784D02*
X131704762Y-115586689D01*
X131704762Y-115586689D02*
X131685714Y-115510499D01*
X131685714Y-115510499D02*
X131685714Y-115453356D01*
X131685714Y-115453356D02*
X131704762Y-115377165D01*
X131704762Y-115377165D02*
X131723809Y-115339070D01*
X131723809Y-115339070D02*
X131761904Y-115300975D01*
X131761904Y-115300975D02*
X131819047Y-115281927D01*
X131819047Y-115281927D02*
X131857143Y-115281927D01*
X131857143Y-115281927D02*
X131914285Y-115300975D01*
X131914285Y-115300975D02*
X131933333Y-115320022D01*
X132276190Y-115415260D02*
X132276190Y-115681927D01*
X132180952Y-115262880D02*
X132085714Y-115548594D01*
X132085714Y-115548594D02*
X132333333Y-115548594D01*
D10*
X149404761Y-124954819D02*
X148833333Y-124954819D01*
X149119047Y-124954819D02*
X149119047Y-123954819D01*
X149119047Y-123954819D02*
X149023809Y-124097676D01*
X149023809Y-124097676D02*
X148928571Y-124192914D01*
X148928571Y-124192914D02*
X148833333Y-124240533D01*
X150261904Y-124288152D02*
X150261904Y-124954819D01*
X149833333Y-124288152D02*
X149833333Y-124811961D01*
X149833333Y-124811961D02*
X149880952Y-124907200D01*
X149880952Y-124907200D02*
X149976190Y-124954819D01*
X149976190Y-124954819D02*
X150119047Y-124954819D01*
X150119047Y-124954819D02*
X150214285Y-124907200D01*
X150214285Y-124907200D02*
X150261904Y-124859580D01*
X151071428Y-124431009D02*
X150738095Y-124431009D01*
X150738095Y-124954819D02*
X150738095Y-123954819D01*
X150738095Y-123954819D02*
X151214285Y-123954819D01*
D11*
X149933333Y-121643832D02*
X149914285Y-121662880D01*
X149914285Y-121662880D02*
X149857143Y-121681927D01*
X149857143Y-121681927D02*
X149819047Y-121681927D01*
X149819047Y-121681927D02*
X149761904Y-121662880D01*
X149761904Y-121662880D02*
X149723809Y-121624784D01*
X149723809Y-121624784D02*
X149704762Y-121586689D01*
X149704762Y-121586689D02*
X149685714Y-121510499D01*
X149685714Y-121510499D02*
X149685714Y-121453356D01*
X149685714Y-121453356D02*
X149704762Y-121377165D01*
X149704762Y-121377165D02*
X149723809Y-121339070D01*
X149723809Y-121339070D02*
X149761904Y-121300975D01*
X149761904Y-121300975D02*
X149819047Y-121281927D01*
X149819047Y-121281927D02*
X149857143Y-121281927D01*
X149857143Y-121281927D02*
X149914285Y-121300975D01*
X149914285Y-121300975D02*
X149933333Y-121320022D01*
X150066666Y-121281927D02*
X150314285Y-121281927D01*
X150314285Y-121281927D02*
X150180952Y-121434308D01*
X150180952Y-121434308D02*
X150238095Y-121434308D01*
X150238095Y-121434308D02*
X150276190Y-121453356D01*
X150276190Y-121453356D02*
X150295238Y-121472403D01*
X150295238Y-121472403D02*
X150314285Y-121510499D01*
X150314285Y-121510499D02*
X150314285Y-121605737D01*
X150314285Y-121605737D02*
X150295238Y-121643832D01*
X150295238Y-121643832D02*
X150276190Y-121662880D01*
X150276190Y-121662880D02*
X150238095Y-121681927D01*
X150238095Y-121681927D02*
X150123809Y-121681927D01*
X150123809Y-121681927D02*
X150085714Y-121662880D01*
X150085714Y-121662880D02*
X150066666Y-121643832D01*
D10*
X154619048Y-111954819D02*
X154857143Y-112954819D01*
X154857143Y-112954819D02*
X155047619Y-112240533D01*
X155047619Y-112240533D02*
X155238095Y-112954819D01*
X155238095Y-112954819D02*
X155476191Y-111954819D01*
X155809524Y-112050057D02*
X155857143Y-112002438D01*
X155857143Y-112002438D02*
X155952381Y-111954819D01*
X155952381Y-111954819D02*
X156190476Y-111954819D01*
X156190476Y-111954819D02*
X156285714Y-112002438D01*
X156285714Y-112002438D02*
X156333333Y-112050057D01*
X156333333Y-112050057D02*
X156380952Y-112145295D01*
X156380952Y-112145295D02*
X156380952Y-112240533D01*
X156380952Y-112240533D02*
X156333333Y-112383390D01*
X156333333Y-112383390D02*
X155761905Y-112954819D01*
X155761905Y-112954819D02*
X156380952Y-112954819D01*
X157285714Y-111954819D02*
X156809524Y-111954819D01*
X156809524Y-111954819D02*
X156761905Y-112431009D01*
X156761905Y-112431009D02*
X156809524Y-112383390D01*
X156809524Y-112383390D02*
X156904762Y-112335771D01*
X156904762Y-112335771D02*
X157142857Y-112335771D01*
X157142857Y-112335771D02*
X157238095Y-112383390D01*
X157238095Y-112383390D02*
X157285714Y-112431009D01*
X157285714Y-112431009D02*
X157333333Y-112526247D01*
X157333333Y-112526247D02*
X157333333Y-112764342D01*
X157333333Y-112764342D02*
X157285714Y-112859580D01*
X157285714Y-112859580D02*
X157238095Y-112907200D01*
X157238095Y-112907200D02*
X157142857Y-112954819D01*
X157142857Y-112954819D02*
X156904762Y-112954819D01*
X156904762Y-112954819D02*
X156809524Y-112907200D01*
X156809524Y-112907200D02*
X156761905Y-112859580D01*
X158428571Y-113050057D02*
X158333333Y-113002438D01*
X158333333Y-113002438D02*
X158238095Y-112907200D01*
X158238095Y-112907200D02*
X158095238Y-112764342D01*
X158095238Y-112764342D02*
X158000000Y-112716723D01*
X158000000Y-112716723D02*
X157904762Y-112716723D01*
X157952381Y-112954819D02*
X157857143Y-112907200D01*
X157857143Y-112907200D02*
X157761905Y-112811961D01*
X157761905Y-112811961D02*
X157714286Y-112621485D01*
X157714286Y-112621485D02*
X157714286Y-112288152D01*
X157714286Y-112288152D02*
X157761905Y-112097676D01*
X157761905Y-112097676D02*
X157857143Y-112002438D01*
X157857143Y-112002438D02*
X157952381Y-111954819D01*
X157952381Y-111954819D02*
X158142857Y-111954819D01*
X158142857Y-111954819D02*
X158238095Y-112002438D01*
X158238095Y-112002438D02*
X158333333Y-112097676D01*
X158333333Y-112097676D02*
X158380952Y-112288152D01*
X158380952Y-112288152D02*
X158380952Y-112621485D01*
X158380952Y-112621485D02*
X158333333Y-112811961D01*
X158333333Y-112811961D02*
X158238095Y-112907200D01*
X158238095Y-112907200D02*
X158142857Y-112954819D01*
X158142857Y-112954819D02*
X157952381Y-112954819D01*
X159333333Y-112954819D02*
X158761905Y-112954819D01*
X159047619Y-112954819D02*
X159047619Y-111954819D01*
X159047619Y-111954819D02*
X158952381Y-112097676D01*
X158952381Y-112097676D02*
X158857143Y-112192914D01*
X158857143Y-112192914D02*
X158761905Y-112240533D01*
X160190476Y-111954819D02*
X160000000Y-111954819D01*
X160000000Y-111954819D02*
X159904762Y-112002438D01*
X159904762Y-112002438D02*
X159857143Y-112050057D01*
X159857143Y-112050057D02*
X159761905Y-112192914D01*
X159761905Y-112192914D02*
X159714286Y-112383390D01*
X159714286Y-112383390D02*
X159714286Y-112764342D01*
X159714286Y-112764342D02*
X159761905Y-112859580D01*
X159761905Y-112859580D02*
X159809524Y-112907200D01*
X159809524Y-112907200D02*
X159904762Y-112954819D01*
X159904762Y-112954819D02*
X160095238Y-112954819D01*
X160095238Y-112954819D02*
X160190476Y-112907200D01*
X160190476Y-112907200D02*
X160238095Y-112859580D01*
X160238095Y-112859580D02*
X160285714Y-112764342D01*
X160285714Y-112764342D02*
X160285714Y-112526247D01*
X160285714Y-112526247D02*
X160238095Y-112431009D01*
X160238095Y-112431009D02*
X160190476Y-112383390D01*
X160190476Y-112383390D02*
X160095238Y-112335771D01*
X160095238Y-112335771D02*
X159904762Y-112335771D01*
X159904762Y-112335771D02*
X159809524Y-112383390D01*
X159809524Y-112383390D02*
X159761905Y-112431009D01*
X159761905Y-112431009D02*
X159714286Y-112526247D01*
X161000000Y-111954819D02*
X161000000Y-112669104D01*
X161000000Y-112669104D02*
X160952381Y-112811961D01*
X160952381Y-112811961D02*
X160857143Y-112907200D01*
X160857143Y-112907200D02*
X160714286Y-112954819D01*
X160714286Y-112954819D02*
X160619048Y-112954819D01*
X161333334Y-111954819D02*
X161666667Y-112954819D01*
X161666667Y-112954819D02*
X162000000Y-111954819D01*
X162285715Y-112907200D02*
X162428572Y-112954819D01*
X162428572Y-112954819D02*
X162666667Y-112954819D01*
X162666667Y-112954819D02*
X162761905Y-112907200D01*
X162761905Y-112907200D02*
X162809524Y-112859580D01*
X162809524Y-112859580D02*
X162857143Y-112764342D01*
X162857143Y-112764342D02*
X162857143Y-112669104D01*
X162857143Y-112669104D02*
X162809524Y-112573866D01*
X162809524Y-112573866D02*
X162761905Y-112526247D01*
X162761905Y-112526247D02*
X162666667Y-112478628D01*
X162666667Y-112478628D02*
X162476191Y-112431009D01*
X162476191Y-112431009D02*
X162380953Y-112383390D01*
X162380953Y-112383390D02*
X162333334Y-112335771D01*
X162333334Y-112335771D02*
X162285715Y-112240533D01*
X162285715Y-112240533D02*
X162285715Y-112145295D01*
X162285715Y-112145295D02*
X162333334Y-112050057D01*
X162333334Y-112050057D02*
X162380953Y-112002438D01*
X162380953Y-112002438D02*
X162476191Y-111954819D01*
X162476191Y-111954819D02*
X162714286Y-111954819D01*
X162714286Y-111954819D02*
X162857143Y-112002438D01*
X163238096Y-112907200D02*
X163380953Y-112954819D01*
X163380953Y-112954819D02*
X163619048Y-112954819D01*
X163619048Y-112954819D02*
X163714286Y-112907200D01*
X163714286Y-112907200D02*
X163761905Y-112859580D01*
X163761905Y-112859580D02*
X163809524Y-112764342D01*
X163809524Y-112764342D02*
X163809524Y-112669104D01*
X163809524Y-112669104D02*
X163761905Y-112573866D01*
X163761905Y-112573866D02*
X163714286Y-112526247D01*
X163714286Y-112526247D02*
X163619048Y-112478628D01*
X163619048Y-112478628D02*
X163428572Y-112431009D01*
X163428572Y-112431009D02*
X163333334Y-112383390D01*
X163333334Y-112383390D02*
X163285715Y-112335771D01*
X163285715Y-112335771D02*
X163238096Y-112240533D01*
X163238096Y-112240533D02*
X163238096Y-112145295D01*
X163238096Y-112145295D02*
X163285715Y-112050057D01*
X163285715Y-112050057D02*
X163333334Y-112002438D01*
X163333334Y-112002438D02*
X163428572Y-111954819D01*
X163428572Y-111954819D02*
X163666667Y-111954819D01*
X163666667Y-111954819D02*
X163809524Y-112002438D01*
X164238096Y-112954819D02*
X164238096Y-111954819D01*
X165380952Y-113050057D02*
X165285714Y-113002438D01*
X165285714Y-113002438D02*
X165190476Y-112907200D01*
X165190476Y-112907200D02*
X165047619Y-112764342D01*
X165047619Y-112764342D02*
X164952381Y-112716723D01*
X164952381Y-112716723D02*
X164857143Y-112716723D01*
X164904762Y-112954819D02*
X164809524Y-112907200D01*
X164809524Y-112907200D02*
X164714286Y-112811961D01*
X164714286Y-112811961D02*
X164666667Y-112621485D01*
X164666667Y-112621485D02*
X164666667Y-112288152D01*
X164666667Y-112288152D02*
X164714286Y-112097676D01*
X164714286Y-112097676D02*
X164809524Y-112002438D01*
X164809524Y-112002438D02*
X164904762Y-111954819D01*
X164904762Y-111954819D02*
X165095238Y-111954819D01*
X165095238Y-111954819D02*
X165190476Y-112002438D01*
X165190476Y-112002438D02*
X165285714Y-112097676D01*
X165285714Y-112097676D02*
X165333333Y-112288152D01*
X165333333Y-112288152D02*
X165333333Y-112621485D01*
X165333333Y-112621485D02*
X165285714Y-112811961D01*
X165285714Y-112811961D02*
X165190476Y-112907200D01*
X165190476Y-112907200D02*
X165095238Y-112954819D01*
X165095238Y-112954819D02*
X164904762Y-112954819D01*
X159238095Y-108954819D02*
X159238095Y-109764342D01*
X159238095Y-109764342D02*
X159285714Y-109859580D01*
X159285714Y-109859580D02*
X159333333Y-109907200D01*
X159333333Y-109907200D02*
X159428571Y-109954819D01*
X159428571Y-109954819D02*
X159619047Y-109954819D01*
X159619047Y-109954819D02*
X159714285Y-109907200D01*
X159714285Y-109907200D02*
X159761904Y-109859580D01*
X159761904Y-109859580D02*
X159809523Y-109764342D01*
X159809523Y-109764342D02*
X159809523Y-108954819D01*
X160238095Y-109050057D02*
X160285714Y-109002438D01*
X160285714Y-109002438D02*
X160380952Y-108954819D01*
X160380952Y-108954819D02*
X160619047Y-108954819D01*
X160619047Y-108954819D02*
X160714285Y-109002438D01*
X160714285Y-109002438D02*
X160761904Y-109050057D01*
X160761904Y-109050057D02*
X160809523Y-109145295D01*
X160809523Y-109145295D02*
X160809523Y-109240533D01*
X160809523Y-109240533D02*
X160761904Y-109383390D01*
X160761904Y-109383390D02*
X160190476Y-109954819D01*
X160190476Y-109954819D02*
X160809523Y-109954819D01*
X124452380Y-124954819D02*
X123880952Y-124954819D01*
X124166666Y-124954819D02*
X124166666Y-123954819D01*
X124166666Y-123954819D02*
X124071428Y-124097676D01*
X124071428Y-124097676D02*
X123976190Y-124192914D01*
X123976190Y-124192914D02*
X123880952Y-124240533D01*
X125071428Y-123954819D02*
X125166666Y-123954819D01*
X125166666Y-123954819D02*
X125261904Y-124002438D01*
X125261904Y-124002438D02*
X125309523Y-124050057D01*
X125309523Y-124050057D02*
X125357142Y-124145295D01*
X125357142Y-124145295D02*
X125404761Y-124335771D01*
X125404761Y-124335771D02*
X125404761Y-124573866D01*
X125404761Y-124573866D02*
X125357142Y-124764342D01*
X125357142Y-124764342D02*
X125309523Y-124859580D01*
X125309523Y-124859580D02*
X125261904Y-124907200D01*
X125261904Y-124907200D02*
X125166666Y-124954819D01*
X125166666Y-124954819D02*
X125071428Y-124954819D01*
X125071428Y-124954819D02*
X124976190Y-124907200D01*
X124976190Y-124907200D02*
X124928571Y-124859580D01*
X124928571Y-124859580D02*
X124880952Y-124764342D01*
X124880952Y-124764342D02*
X124833333Y-124573866D01*
X124833333Y-124573866D02*
X124833333Y-124335771D01*
X124833333Y-124335771D02*
X124880952Y-124145295D01*
X124880952Y-124145295D02*
X124928571Y-124050057D01*
X124928571Y-124050057D02*
X124976190Y-124002438D01*
X124976190Y-124002438D02*
X125071428Y-123954819D01*
X126023809Y-123954819D02*
X126119047Y-123954819D01*
X126119047Y-123954819D02*
X126214285Y-124002438D01*
X126214285Y-124002438D02*
X126261904Y-124050057D01*
X126261904Y-124050057D02*
X126309523Y-124145295D01*
X126309523Y-124145295D02*
X126357142Y-124335771D01*
X126357142Y-124335771D02*
X126357142Y-124573866D01*
X126357142Y-124573866D02*
X126309523Y-124764342D01*
X126309523Y-124764342D02*
X126261904Y-124859580D01*
X126261904Y-124859580D02*
X126214285Y-124907200D01*
X126214285Y-124907200D02*
X126119047Y-124954819D01*
X126119047Y-124954819D02*
X126023809Y-124954819D01*
X126023809Y-124954819D02*
X125928571Y-124907200D01*
X125928571Y-124907200D02*
X125880952Y-124859580D01*
X125880952Y-124859580D02*
X125833333Y-124764342D01*
X125833333Y-124764342D02*
X125785714Y-124573866D01*
X125785714Y-124573866D02*
X125785714Y-124335771D01*
X125785714Y-124335771D02*
X125833333Y-124145295D01*
X125833333Y-124145295D02*
X125880952Y-124050057D01*
X125880952Y-124050057D02*
X125928571Y-124002438D01*
X125928571Y-124002438D02*
X126023809Y-123954819D01*
X126785714Y-124288152D02*
X126785714Y-124954819D01*
X126785714Y-124383390D02*
X126833333Y-124335771D01*
X126833333Y-124335771D02*
X126928571Y-124288152D01*
X126928571Y-124288152D02*
X127071428Y-124288152D01*
X127071428Y-124288152D02*
X127166666Y-124335771D01*
X127166666Y-124335771D02*
X127214285Y-124431009D01*
X127214285Y-124431009D02*
X127214285Y-124954819D01*
X128023809Y-124431009D02*
X127690476Y-124431009D01*
X127690476Y-124954819D02*
X127690476Y-123954819D01*
X127690476Y-123954819D02*
X128166666Y-123954819D01*
D11*
X125933333Y-121643832D02*
X125914285Y-121662880D01*
X125914285Y-121662880D02*
X125857143Y-121681927D01*
X125857143Y-121681927D02*
X125819047Y-121681927D01*
X125819047Y-121681927D02*
X125761904Y-121662880D01*
X125761904Y-121662880D02*
X125723809Y-121624784D01*
X125723809Y-121624784D02*
X125704762Y-121586689D01*
X125704762Y-121586689D02*
X125685714Y-121510499D01*
X125685714Y-121510499D02*
X125685714Y-121453356D01*
X125685714Y-121453356D02*
X125704762Y-121377165D01*
X125704762Y-121377165D02*
X125723809Y-121339070D01*
X125723809Y-121339070D02*
X125761904Y-121300975D01*
X125761904Y-121300975D02*
X125819047Y-121281927D01*
X125819047Y-121281927D02*
X125857143Y-121281927D01*
X125857143Y-121281927D02*
X125914285Y-121300975D01*
X125914285Y-121300975D02*
X125933333Y-121320022D01*
X126314285Y-121681927D02*
X126085714Y-121681927D01*
X126200000Y-121681927D02*
X126200000Y-121281927D01*
X126200000Y-121281927D02*
X126161904Y-121339070D01*
X126161904Y-121339070D02*
X126123809Y-121377165D01*
X126123809Y-121377165D02*
X126085714Y-121396213D01*
D10*
X134023810Y-130954819D02*
X134023810Y-129954819D01*
X134452381Y-130907200D02*
X134595238Y-130954819D01*
X134595238Y-130954819D02*
X134833333Y-130954819D01*
X134833333Y-130954819D02*
X134928571Y-130907200D01*
X134928571Y-130907200D02*
X134976190Y-130859580D01*
X134976190Y-130859580D02*
X135023809Y-130764342D01*
X135023809Y-130764342D02*
X135023809Y-130669104D01*
X135023809Y-130669104D02*
X134976190Y-130573866D01*
X134976190Y-130573866D02*
X134928571Y-130526247D01*
X134928571Y-130526247D02*
X134833333Y-130478628D01*
X134833333Y-130478628D02*
X134642857Y-130431009D01*
X134642857Y-130431009D02*
X134547619Y-130383390D01*
X134547619Y-130383390D02*
X134500000Y-130335771D01*
X134500000Y-130335771D02*
X134452381Y-130240533D01*
X134452381Y-130240533D02*
X134452381Y-130145295D01*
X134452381Y-130145295D02*
X134500000Y-130050057D01*
X134500000Y-130050057D02*
X134547619Y-130002438D01*
X134547619Y-130002438D02*
X134642857Y-129954819D01*
X134642857Y-129954819D02*
X134880952Y-129954819D01*
X134880952Y-129954819D02*
X135023809Y-130002438D01*
X135452381Y-130954819D02*
X135452381Y-129954819D01*
X135452381Y-129954819D02*
X135690476Y-129954819D01*
X135690476Y-129954819D02*
X135833333Y-130002438D01*
X135833333Y-130002438D02*
X135928571Y-130097676D01*
X135928571Y-130097676D02*
X135976190Y-130192914D01*
X135976190Y-130192914D02*
X136023809Y-130383390D01*
X136023809Y-130383390D02*
X136023809Y-130526247D01*
X136023809Y-130526247D02*
X135976190Y-130716723D01*
X135976190Y-130716723D02*
X135928571Y-130811961D01*
X135928571Y-130811961D02*
X135833333Y-130907200D01*
X135833333Y-130907200D02*
X135690476Y-130954819D01*
X135690476Y-130954819D02*
X135452381Y-130954819D01*
X136357143Y-129954819D02*
X136976190Y-129954819D01*
X136976190Y-129954819D02*
X136642857Y-130335771D01*
X136642857Y-130335771D02*
X136785714Y-130335771D01*
X136785714Y-130335771D02*
X136880952Y-130383390D01*
X136880952Y-130383390D02*
X136928571Y-130431009D01*
X136928571Y-130431009D02*
X136976190Y-130526247D01*
X136976190Y-130526247D02*
X136976190Y-130764342D01*
X136976190Y-130764342D02*
X136928571Y-130859580D01*
X136928571Y-130859580D02*
X136880952Y-130907200D01*
X136880952Y-130907200D02*
X136785714Y-130954819D01*
X136785714Y-130954819D02*
X136500000Y-130954819D01*
X136500000Y-130954819D02*
X136404762Y-130907200D01*
X136404762Y-130907200D02*
X136357143Y-130859580D01*
X137452381Y-130954819D02*
X137642857Y-130954819D01*
X137642857Y-130954819D02*
X137738095Y-130907200D01*
X137738095Y-130907200D02*
X137785714Y-130859580D01*
X137785714Y-130859580D02*
X137880952Y-130716723D01*
X137880952Y-130716723D02*
X137928571Y-130526247D01*
X137928571Y-130526247D02*
X137928571Y-130145295D01*
X137928571Y-130145295D02*
X137880952Y-130050057D01*
X137880952Y-130050057D02*
X137833333Y-130002438D01*
X137833333Y-130002438D02*
X137738095Y-129954819D01*
X137738095Y-129954819D02*
X137547619Y-129954819D01*
X137547619Y-129954819D02*
X137452381Y-130002438D01*
X137452381Y-130002438D02*
X137404762Y-130050057D01*
X137404762Y-130050057D02*
X137357143Y-130145295D01*
X137357143Y-130145295D02*
X137357143Y-130383390D01*
X137357143Y-130383390D02*
X137404762Y-130478628D01*
X137404762Y-130478628D02*
X137452381Y-130526247D01*
X137452381Y-130526247D02*
X137547619Y-130573866D01*
X137547619Y-130573866D02*
X137738095Y-130573866D01*
X137738095Y-130573866D02*
X137833333Y-130526247D01*
X137833333Y-130526247D02*
X137880952Y-130478628D01*
X137880952Y-130478628D02*
X137928571Y-130383390D01*
X138547619Y-129954819D02*
X138642857Y-129954819D01*
X138642857Y-129954819D02*
X138738095Y-130002438D01*
X138738095Y-130002438D02*
X138785714Y-130050057D01*
X138785714Y-130050057D02*
X138833333Y-130145295D01*
X138833333Y-130145295D02*
X138880952Y-130335771D01*
X138880952Y-130335771D02*
X138880952Y-130573866D01*
X138880952Y-130573866D02*
X138833333Y-130764342D01*
X138833333Y-130764342D02*
X138785714Y-130859580D01*
X138785714Y-130859580D02*
X138738095Y-130907200D01*
X138738095Y-130907200D02*
X138642857Y-130954819D01*
X138642857Y-130954819D02*
X138547619Y-130954819D01*
X138547619Y-130954819D02*
X138452381Y-130907200D01*
X138452381Y-130907200D02*
X138404762Y-130859580D01*
X138404762Y-130859580D02*
X138357143Y-130764342D01*
X138357143Y-130764342D02*
X138309524Y-130573866D01*
X138309524Y-130573866D02*
X138309524Y-130335771D01*
X138309524Y-130335771D02*
X138357143Y-130145295D01*
X138357143Y-130145295D02*
X138404762Y-130050057D01*
X138404762Y-130050057D02*
X138452381Y-130002438D01*
X138452381Y-130002438D02*
X138547619Y-129954819D01*
X139500000Y-129954819D02*
X139595238Y-129954819D01*
X139595238Y-129954819D02*
X139690476Y-130002438D01*
X139690476Y-130002438D02*
X139738095Y-130050057D01*
X139738095Y-130050057D02*
X139785714Y-130145295D01*
X139785714Y-130145295D02*
X139833333Y-130335771D01*
X139833333Y-130335771D02*
X139833333Y-130573866D01*
X139833333Y-130573866D02*
X139785714Y-130764342D01*
X139785714Y-130764342D02*
X139738095Y-130859580D01*
X139738095Y-130859580D02*
X139690476Y-130907200D01*
X139690476Y-130907200D02*
X139595238Y-130954819D01*
X139595238Y-130954819D02*
X139500000Y-130954819D01*
X139500000Y-130954819D02*
X139404762Y-130907200D01*
X139404762Y-130907200D02*
X139357143Y-130859580D01*
X139357143Y-130859580D02*
X139309524Y-130764342D01*
X139309524Y-130764342D02*
X139261905Y-130573866D01*
X139261905Y-130573866D02*
X139261905Y-130335771D01*
X139261905Y-130335771D02*
X139309524Y-130145295D01*
X139309524Y-130145295D02*
X139357143Y-130050057D01*
X139357143Y-130050057D02*
X139404762Y-130002438D01*
X139404762Y-130002438D02*
X139500000Y-129954819D01*
X140595238Y-130431009D02*
X140261905Y-130431009D01*
X140261905Y-130954819D02*
X140261905Y-129954819D01*
X140261905Y-129954819D02*
X140738095Y-129954819D01*
X141309524Y-130478628D02*
X141309524Y-130954819D01*
X140976191Y-129954819D02*
X141309524Y-130478628D01*
X141309524Y-130478628D02*
X141642857Y-129954819D01*
X141976191Y-130954819D02*
X141976191Y-129954819D01*
X137238095Y-126954819D02*
X137238095Y-127764342D01*
X137238095Y-127764342D02*
X137285714Y-127859580D01*
X137285714Y-127859580D02*
X137333333Y-127907200D01*
X137333333Y-127907200D02*
X137428571Y-127954819D01*
X137428571Y-127954819D02*
X137619047Y-127954819D01*
X137619047Y-127954819D02*
X137714285Y-127907200D01*
X137714285Y-127907200D02*
X137761904Y-127859580D01*
X137761904Y-127859580D02*
X137809523Y-127764342D01*
X137809523Y-127764342D02*
X137809523Y-126954819D01*
X138809523Y-127954819D02*
X138238095Y-127954819D01*
X138523809Y-127954819D02*
X138523809Y-126954819D01*
X138523809Y-126954819D02*
X138428571Y-127097676D01*
X138428571Y-127097676D02*
X138333333Y-127192914D01*
X138333333Y-127192914D02*
X138238095Y-127240533D01*
X164904761Y-130859580D02*
X164857142Y-130907200D01*
X164857142Y-130907200D02*
X164714285Y-130954819D01*
X164714285Y-130954819D02*
X164619047Y-130954819D01*
X164619047Y-130954819D02*
X164476190Y-130907200D01*
X164476190Y-130907200D02*
X164380952Y-130811961D01*
X164380952Y-130811961D02*
X164333333Y-130716723D01*
X164333333Y-130716723D02*
X164285714Y-130526247D01*
X164285714Y-130526247D02*
X164285714Y-130383390D01*
X164285714Y-130383390D02*
X164333333Y-130192914D01*
X164333333Y-130192914D02*
X164380952Y-130097676D01*
X164380952Y-130097676D02*
X164476190Y-130002438D01*
X164476190Y-130002438D02*
X164619047Y-129954819D01*
X164619047Y-129954819D02*
X164714285Y-129954819D01*
X164714285Y-129954819D02*
X164857142Y-130002438D01*
X164857142Y-130002438D02*
X164904761Y-130050057D01*
X165904761Y-130954819D02*
X165571428Y-130478628D01*
X165333333Y-130954819D02*
X165333333Y-129954819D01*
X165333333Y-129954819D02*
X165714285Y-129954819D01*
X165714285Y-129954819D02*
X165809523Y-130002438D01*
X165809523Y-130002438D02*
X165857142Y-130050057D01*
X165857142Y-130050057D02*
X165904761Y-130145295D01*
X165904761Y-130145295D02*
X165904761Y-130288152D01*
X165904761Y-130288152D02*
X165857142Y-130383390D01*
X165857142Y-130383390D02*
X165809523Y-130431009D01*
X165809523Y-130431009D02*
X165714285Y-130478628D01*
X165714285Y-130478628D02*
X165333333Y-130478628D01*
X166285714Y-130050057D02*
X166333333Y-130002438D01*
X166333333Y-130002438D02*
X166428571Y-129954819D01*
X166428571Y-129954819D02*
X166666666Y-129954819D01*
X166666666Y-129954819D02*
X166761904Y-130002438D01*
X166761904Y-130002438D02*
X166809523Y-130050057D01*
X166809523Y-130050057D02*
X166857142Y-130145295D01*
X166857142Y-130145295D02*
X166857142Y-130240533D01*
X166857142Y-130240533D02*
X166809523Y-130383390D01*
X166809523Y-130383390D02*
X166238095Y-130954819D01*
X166238095Y-130954819D02*
X166857142Y-130954819D01*
X167476190Y-129954819D02*
X167571428Y-129954819D01*
X167571428Y-129954819D02*
X167666666Y-130002438D01*
X167666666Y-130002438D02*
X167714285Y-130050057D01*
X167714285Y-130050057D02*
X167761904Y-130145295D01*
X167761904Y-130145295D02*
X167809523Y-130335771D01*
X167809523Y-130335771D02*
X167809523Y-130573866D01*
X167809523Y-130573866D02*
X167761904Y-130764342D01*
X167761904Y-130764342D02*
X167714285Y-130859580D01*
X167714285Y-130859580D02*
X167666666Y-130907200D01*
X167666666Y-130907200D02*
X167571428Y-130954819D01*
X167571428Y-130954819D02*
X167476190Y-130954819D01*
X167476190Y-130954819D02*
X167380952Y-130907200D01*
X167380952Y-130907200D02*
X167333333Y-130859580D01*
X167333333Y-130859580D02*
X167285714Y-130764342D01*
X167285714Y-130764342D02*
X167238095Y-130573866D01*
X167238095Y-130573866D02*
X167238095Y-130335771D01*
X167238095Y-130335771D02*
X167285714Y-130145295D01*
X167285714Y-130145295D02*
X167333333Y-130050057D01*
X167333333Y-130050057D02*
X167380952Y-130002438D01*
X167380952Y-130002438D02*
X167476190Y-129954819D01*
X168142857Y-129954819D02*
X168761904Y-129954819D01*
X168761904Y-129954819D02*
X168428571Y-130335771D01*
X168428571Y-130335771D02*
X168571428Y-130335771D01*
X168571428Y-130335771D02*
X168666666Y-130383390D01*
X168666666Y-130383390D02*
X168714285Y-130431009D01*
X168714285Y-130431009D02*
X168761904Y-130526247D01*
X168761904Y-130526247D02*
X168761904Y-130764342D01*
X168761904Y-130764342D02*
X168714285Y-130859580D01*
X168714285Y-130859580D02*
X168666666Y-130907200D01*
X168666666Y-130907200D02*
X168571428Y-130954819D01*
X168571428Y-130954819D02*
X168285714Y-130954819D01*
X168285714Y-130954819D02*
X168190476Y-130907200D01*
X168190476Y-130907200D02*
X168142857Y-130859580D01*
X169142857Y-130050057D02*
X169190476Y-130002438D01*
X169190476Y-130002438D02*
X169285714Y-129954819D01*
X169285714Y-129954819D02*
X169523809Y-129954819D01*
X169523809Y-129954819D02*
X169619047Y-130002438D01*
X169619047Y-130002438D02*
X169666666Y-130050057D01*
X169666666Y-130050057D02*
X169714285Y-130145295D01*
X169714285Y-130145295D02*
X169714285Y-130240533D01*
X169714285Y-130240533D02*
X169666666Y-130383390D01*
X169666666Y-130383390D02*
X169095238Y-130954819D01*
X169095238Y-130954819D02*
X169714285Y-130954819D01*
X166214285Y-127431009D02*
X166357142Y-127478628D01*
X166357142Y-127478628D02*
X166404761Y-127526247D01*
X166404761Y-127526247D02*
X166452380Y-127621485D01*
X166452380Y-127621485D02*
X166452380Y-127764342D01*
X166452380Y-127764342D02*
X166404761Y-127859580D01*
X166404761Y-127859580D02*
X166357142Y-127907200D01*
X166357142Y-127907200D02*
X166261904Y-127954819D01*
X166261904Y-127954819D02*
X165880952Y-127954819D01*
X165880952Y-127954819D02*
X165880952Y-126954819D01*
X165880952Y-126954819D02*
X166214285Y-126954819D01*
X166214285Y-126954819D02*
X166309523Y-127002438D01*
X166309523Y-127002438D02*
X166357142Y-127050057D01*
X166357142Y-127050057D02*
X166404761Y-127145295D01*
X166404761Y-127145295D02*
X166404761Y-127240533D01*
X166404761Y-127240533D02*
X166357142Y-127335771D01*
X166357142Y-127335771D02*
X166309523Y-127383390D01*
X166309523Y-127383390D02*
X166214285Y-127431009D01*
X166214285Y-127431009D02*
X165880952Y-127431009D01*
X166738095Y-126954819D02*
X167309523Y-126954819D01*
X167023809Y-127954819D02*
X167023809Y-126954819D01*
X168166666Y-127954819D02*
X167595238Y-127954819D01*
X167880952Y-127954819D02*
X167880952Y-126954819D01*
X167880952Y-126954819D02*
X167785714Y-127097676D01*
X167785714Y-127097676D02*
X167690476Y-127192914D01*
X167690476Y-127192914D02*
X167595238Y-127240533D01*
X164142856Y-148431009D02*
X164285713Y-148478628D01*
X164285713Y-148478628D02*
X164333332Y-148526247D01*
X164333332Y-148526247D02*
X164380951Y-148621485D01*
X164380951Y-148621485D02*
X164380951Y-148764342D01*
X164380951Y-148764342D02*
X164333332Y-148859580D01*
X164333332Y-148859580D02*
X164285713Y-148907200D01*
X164285713Y-148907200D02*
X164190475Y-148954819D01*
X164190475Y-148954819D02*
X163809523Y-148954819D01*
X163809523Y-148954819D02*
X163809523Y-147954819D01*
X163809523Y-147954819D02*
X164142856Y-147954819D01*
X164142856Y-147954819D02*
X164238094Y-148002438D01*
X164238094Y-148002438D02*
X164285713Y-148050057D01*
X164285713Y-148050057D02*
X164333332Y-148145295D01*
X164333332Y-148145295D02*
X164333332Y-148240533D01*
X164333332Y-148240533D02*
X164285713Y-148335771D01*
X164285713Y-148335771D02*
X164238094Y-148383390D01*
X164238094Y-148383390D02*
X164142856Y-148431009D01*
X164142856Y-148431009D02*
X163809523Y-148431009D01*
X165238094Y-148288152D02*
X165238094Y-148954819D01*
X164809523Y-148288152D02*
X164809523Y-148811961D01*
X164809523Y-148811961D02*
X164857142Y-148907200D01*
X164857142Y-148907200D02*
X164952380Y-148954819D01*
X164952380Y-148954819D02*
X165095237Y-148954819D01*
X165095237Y-148954819D02*
X165190475Y-148907200D01*
X165190475Y-148907200D02*
X165238094Y-148859580D01*
X165571428Y-148288152D02*
X165952380Y-148288152D01*
X165714285Y-147954819D02*
X165714285Y-148811961D01*
X165714285Y-148811961D02*
X165761904Y-148907200D01*
X165761904Y-148907200D02*
X165857142Y-148954819D01*
X165857142Y-148954819D02*
X165952380Y-148954819D01*
X166142857Y-148288152D02*
X166523809Y-148288152D01*
X166285714Y-147954819D02*
X166285714Y-148811961D01*
X166285714Y-148811961D02*
X166333333Y-148907200D01*
X166333333Y-148907200D02*
X166428571Y-148954819D01*
X166428571Y-148954819D02*
X166523809Y-148954819D01*
X167000000Y-148954819D02*
X166904762Y-148907200D01*
X166904762Y-148907200D02*
X166857143Y-148859580D01*
X166857143Y-148859580D02*
X166809524Y-148764342D01*
X166809524Y-148764342D02*
X166809524Y-148478628D01*
X166809524Y-148478628D02*
X166857143Y-148383390D01*
X166857143Y-148383390D02*
X166904762Y-148335771D01*
X166904762Y-148335771D02*
X167000000Y-148288152D01*
X167000000Y-148288152D02*
X167142857Y-148288152D01*
X167142857Y-148288152D02*
X167238095Y-148335771D01*
X167238095Y-148335771D02*
X167285714Y-148383390D01*
X167285714Y-148383390D02*
X167333333Y-148478628D01*
X167333333Y-148478628D02*
X167333333Y-148764342D01*
X167333333Y-148764342D02*
X167285714Y-148859580D01*
X167285714Y-148859580D02*
X167238095Y-148907200D01*
X167238095Y-148907200D02*
X167142857Y-148954819D01*
X167142857Y-148954819D02*
X167000000Y-148954819D01*
X167761905Y-148288152D02*
X167761905Y-148954819D01*
X167761905Y-148383390D02*
X167809524Y-148335771D01*
X167809524Y-148335771D02*
X167904762Y-148288152D01*
X167904762Y-148288152D02*
X168047619Y-148288152D01*
X168047619Y-148288152D02*
X168142857Y-148335771D01*
X168142857Y-148335771D02*
X168190476Y-148431009D01*
X168190476Y-148431009D02*
X168190476Y-148954819D01*
X164666667Y-142157200D02*
X164809524Y-142204819D01*
X164809524Y-142204819D02*
X165047619Y-142204819D01*
X165047619Y-142204819D02*
X165142857Y-142157200D01*
X165142857Y-142157200D02*
X165190476Y-142109580D01*
X165190476Y-142109580D02*
X165238095Y-142014342D01*
X165238095Y-142014342D02*
X165238095Y-141919104D01*
X165238095Y-141919104D02*
X165190476Y-141823866D01*
X165190476Y-141823866D02*
X165142857Y-141776247D01*
X165142857Y-141776247D02*
X165047619Y-141728628D01*
X165047619Y-141728628D02*
X164857143Y-141681009D01*
X164857143Y-141681009D02*
X164761905Y-141633390D01*
X164761905Y-141633390D02*
X164714286Y-141585771D01*
X164714286Y-141585771D02*
X164666667Y-141490533D01*
X164666667Y-141490533D02*
X164666667Y-141395295D01*
X164666667Y-141395295D02*
X164714286Y-141300057D01*
X164714286Y-141300057D02*
X164761905Y-141252438D01*
X164761905Y-141252438D02*
X164857143Y-141204819D01*
X164857143Y-141204819D02*
X165095238Y-141204819D01*
X165095238Y-141204819D02*
X165238095Y-141252438D01*
X165571429Y-141204819D02*
X165809524Y-142204819D01*
X165809524Y-142204819D02*
X166000000Y-141490533D01*
X166000000Y-141490533D02*
X166190476Y-142204819D01*
X166190476Y-142204819D02*
X166428572Y-141204819D01*
X167333333Y-142204819D02*
X166761905Y-142204819D01*
X167047619Y-142204819D02*
X167047619Y-141204819D01*
X167047619Y-141204819D02*
X166952381Y-141347676D01*
X166952381Y-141347676D02*
X166857143Y-141442914D01*
X166857143Y-141442914D02*
X166761905Y-141490533D01*
X146857142Y-150454819D02*
X146857142Y-149454819D01*
X146857142Y-149454819D02*
X147238094Y-149454819D01*
X147238094Y-149454819D02*
X147333332Y-149502438D01*
X147333332Y-149502438D02*
X147380951Y-149550057D01*
X147380951Y-149550057D02*
X147428570Y-149645295D01*
X147428570Y-149645295D02*
X147428570Y-149788152D01*
X147428570Y-149788152D02*
X147380951Y-149883390D01*
X147380951Y-149883390D02*
X147333332Y-149931009D01*
X147333332Y-149931009D02*
X147238094Y-149978628D01*
X147238094Y-149978628D02*
X146857142Y-149978628D01*
X148285713Y-149788152D02*
X148285713Y-150454819D01*
X147857142Y-149788152D02*
X147857142Y-150311961D01*
X147857142Y-150311961D02*
X147904761Y-150407200D01*
X147904761Y-150407200D02*
X147999999Y-150454819D01*
X147999999Y-150454819D02*
X148142856Y-150454819D01*
X148142856Y-150454819D02*
X148238094Y-150407200D01*
X148238094Y-150407200D02*
X148285713Y-150359580D01*
X148904761Y-150454819D02*
X148809523Y-150407200D01*
X148809523Y-150407200D02*
X148761904Y-150311961D01*
X148761904Y-150311961D02*
X148761904Y-149454819D01*
X149428571Y-150454819D02*
X149333333Y-150407200D01*
X149333333Y-150407200D02*
X149285714Y-150311961D01*
X149285714Y-150311961D02*
X149285714Y-149454819D01*
X149809524Y-150073866D02*
X150571429Y-150073866D01*
X150904762Y-149454819D02*
X151476190Y-149454819D01*
X151190476Y-150454819D02*
X151190476Y-149454819D01*
X152238095Y-150454819D02*
X152238095Y-149931009D01*
X152238095Y-149931009D02*
X152190476Y-149835771D01*
X152190476Y-149835771D02*
X152095238Y-149788152D01*
X152095238Y-149788152D02*
X151904762Y-149788152D01*
X151904762Y-149788152D02*
X151809524Y-149835771D01*
X152238095Y-150407200D02*
X152142857Y-150454819D01*
X152142857Y-150454819D02*
X151904762Y-150454819D01*
X151904762Y-150454819D02*
X151809524Y-150407200D01*
X151809524Y-150407200D02*
X151761905Y-150311961D01*
X151761905Y-150311961D02*
X151761905Y-150216723D01*
X151761905Y-150216723D02*
X151809524Y-150121485D01*
X151809524Y-150121485D02*
X151904762Y-150073866D01*
X151904762Y-150073866D02*
X152142857Y-150073866D01*
X152142857Y-150073866D02*
X152238095Y-150026247D01*
X152714286Y-150454819D02*
X152714286Y-149454819D01*
X152714286Y-149835771D02*
X152809524Y-149788152D01*
X152809524Y-149788152D02*
X153000000Y-149788152D01*
X153000000Y-149788152D02*
X153095238Y-149835771D01*
X153095238Y-149835771D02*
X153142857Y-149883390D01*
X153142857Y-149883390D02*
X153190476Y-149978628D01*
X153190476Y-149978628D02*
X153190476Y-150264342D01*
X153190476Y-150264342D02*
X153142857Y-150359580D01*
X153142857Y-150359580D02*
X153095238Y-150407200D01*
X153095238Y-150407200D02*
X153000000Y-150454819D01*
X153000000Y-150454819D02*
X152809524Y-150454819D01*
X152809524Y-150454819D02*
X152714286Y-150407200D01*
X149454819Y-148603333D02*
X150169104Y-148603333D01*
X150169104Y-148603333D02*
X150311961Y-148650952D01*
X150311961Y-148650952D02*
X150407200Y-148746190D01*
X150407200Y-148746190D02*
X150454819Y-148889047D01*
X150454819Y-148889047D02*
X150454819Y-148984285D01*
X149550057Y-148174761D02*
X149502438Y-148127142D01*
X149502438Y-148127142D02*
X149454819Y-148031904D01*
X149454819Y-148031904D02*
X149454819Y-147793809D01*
X149454819Y-147793809D02*
X149502438Y-147698571D01*
X149502438Y-147698571D02*
X149550057Y-147650952D01*
X149550057Y-147650952D02*
X149645295Y-147603333D01*
X149645295Y-147603333D02*
X149740533Y-147603333D01*
X149740533Y-147603333D02*
X149883390Y-147650952D01*
X149883390Y-147650952D02*
X150454819Y-148222380D01*
X150454819Y-148222380D02*
X150454819Y-147603333D01*
X124928571Y-136954819D02*
X124357143Y-136954819D01*
X124642857Y-136954819D02*
X124642857Y-135954819D01*
X124642857Y-135954819D02*
X124547619Y-136097676D01*
X124547619Y-136097676D02*
X124452381Y-136192914D01*
X124452381Y-136192914D02*
X124357143Y-136240533D01*
X125547619Y-135954819D02*
X125642857Y-135954819D01*
X125642857Y-135954819D02*
X125738095Y-136002438D01*
X125738095Y-136002438D02*
X125785714Y-136050057D01*
X125785714Y-136050057D02*
X125833333Y-136145295D01*
X125833333Y-136145295D02*
X125880952Y-136335771D01*
X125880952Y-136335771D02*
X125880952Y-136573866D01*
X125880952Y-136573866D02*
X125833333Y-136764342D01*
X125833333Y-136764342D02*
X125785714Y-136859580D01*
X125785714Y-136859580D02*
X125738095Y-136907200D01*
X125738095Y-136907200D02*
X125642857Y-136954819D01*
X125642857Y-136954819D02*
X125547619Y-136954819D01*
X125547619Y-136954819D02*
X125452381Y-136907200D01*
X125452381Y-136907200D02*
X125404762Y-136859580D01*
X125404762Y-136859580D02*
X125357143Y-136764342D01*
X125357143Y-136764342D02*
X125309524Y-136573866D01*
X125309524Y-136573866D02*
X125309524Y-136335771D01*
X125309524Y-136335771D02*
X125357143Y-136145295D01*
X125357143Y-136145295D02*
X125404762Y-136050057D01*
X125404762Y-136050057D02*
X125452381Y-136002438D01*
X125452381Y-136002438D02*
X125547619Y-135954819D01*
X126738095Y-136288152D02*
X126738095Y-136954819D01*
X126309524Y-136288152D02*
X126309524Y-136811961D01*
X126309524Y-136811961D02*
X126357143Y-136907200D01*
X126357143Y-136907200D02*
X126452381Y-136954819D01*
X126452381Y-136954819D02*
X126595238Y-136954819D01*
X126595238Y-136954819D02*
X126690476Y-136907200D01*
X126690476Y-136907200D02*
X126738095Y-136859580D01*
X127547619Y-136431009D02*
X127214286Y-136431009D01*
X127214286Y-136954819D02*
X127214286Y-135954819D01*
X127214286Y-135954819D02*
X127690476Y-135954819D01*
D12*
X125916666Y-133679530D02*
X125892857Y-133703340D01*
X125892857Y-133703340D02*
X125821428Y-133727149D01*
X125821428Y-133727149D02*
X125773809Y-133727149D01*
X125773809Y-133727149D02*
X125702381Y-133703340D01*
X125702381Y-133703340D02*
X125654762Y-133655720D01*
X125654762Y-133655720D02*
X125630952Y-133608101D01*
X125630952Y-133608101D02*
X125607143Y-133512863D01*
X125607143Y-133512863D02*
X125607143Y-133441435D01*
X125607143Y-133441435D02*
X125630952Y-133346197D01*
X125630952Y-133346197D02*
X125654762Y-133298578D01*
X125654762Y-133298578D02*
X125702381Y-133250959D01*
X125702381Y-133250959D02*
X125773809Y-133227149D01*
X125773809Y-133227149D02*
X125821428Y-133227149D01*
X125821428Y-133227149D02*
X125892857Y-133250959D01*
X125892857Y-133250959D02*
X125916666Y-133274768D01*
X126107143Y-133274768D02*
X126130952Y-133250959D01*
X126130952Y-133250959D02*
X126178571Y-133227149D01*
X126178571Y-133227149D02*
X126297619Y-133227149D01*
X126297619Y-133227149D02*
X126345238Y-133250959D01*
X126345238Y-133250959D02*
X126369047Y-133274768D01*
X126369047Y-133274768D02*
X126392857Y-133322387D01*
X126392857Y-133322387D02*
X126392857Y-133370006D01*
X126392857Y-133370006D02*
X126369047Y-133441435D01*
X126369047Y-133441435D02*
X126083333Y-133727149D01*
X126083333Y-133727149D02*
X126392857Y-133727149D01*
D10*
X131404761Y-112954819D02*
X130833333Y-112954819D01*
X131119047Y-112954819D02*
X131119047Y-111954819D01*
X131119047Y-111954819D02*
X131023809Y-112097676D01*
X131023809Y-112097676D02*
X130928571Y-112192914D01*
X130928571Y-112192914D02*
X130833333Y-112240533D01*
X132023809Y-111954819D02*
X132119047Y-111954819D01*
X132119047Y-111954819D02*
X132214285Y-112002438D01*
X132214285Y-112002438D02*
X132261904Y-112050057D01*
X132261904Y-112050057D02*
X132309523Y-112145295D01*
X132309523Y-112145295D02*
X132357142Y-112335771D01*
X132357142Y-112335771D02*
X132357142Y-112573866D01*
X132357142Y-112573866D02*
X132309523Y-112764342D01*
X132309523Y-112764342D02*
X132261904Y-112859580D01*
X132261904Y-112859580D02*
X132214285Y-112907200D01*
X132214285Y-112907200D02*
X132119047Y-112954819D01*
X132119047Y-112954819D02*
X132023809Y-112954819D01*
X132023809Y-112954819D02*
X131928571Y-112907200D01*
X131928571Y-112907200D02*
X131880952Y-112859580D01*
X131880952Y-112859580D02*
X131833333Y-112764342D01*
X131833333Y-112764342D02*
X131785714Y-112573866D01*
X131785714Y-112573866D02*
X131785714Y-112335771D01*
X131785714Y-112335771D02*
X131833333Y-112145295D01*
X131833333Y-112145295D02*
X131880952Y-112050057D01*
X131880952Y-112050057D02*
X131928571Y-112002438D01*
X131928571Y-112002438D02*
X132023809Y-111954819D01*
X132785714Y-112954819D02*
X132785714Y-111954819D01*
X132880952Y-112573866D02*
X133166666Y-112954819D01*
X133166666Y-112288152D02*
X132785714Y-112669104D01*
D11*
X131933333Y-109681927D02*
X131800000Y-109491451D01*
X131704762Y-109681927D02*
X131704762Y-109281927D01*
X131704762Y-109281927D02*
X131857143Y-109281927D01*
X131857143Y-109281927D02*
X131895238Y-109300975D01*
X131895238Y-109300975D02*
X131914285Y-109320022D01*
X131914285Y-109320022D02*
X131933333Y-109358118D01*
X131933333Y-109358118D02*
X131933333Y-109415260D01*
X131933333Y-109415260D02*
X131914285Y-109453356D01*
X131914285Y-109453356D02*
X131895238Y-109472403D01*
X131895238Y-109472403D02*
X131857143Y-109491451D01*
X131857143Y-109491451D02*
X131704762Y-109491451D01*
X132066666Y-109281927D02*
X132314285Y-109281927D01*
X132314285Y-109281927D02*
X132180952Y-109434308D01*
X132180952Y-109434308D02*
X132238095Y-109434308D01*
X132238095Y-109434308D02*
X132276190Y-109453356D01*
X132276190Y-109453356D02*
X132295238Y-109472403D01*
X132295238Y-109472403D02*
X132314285Y-109510499D01*
X132314285Y-109510499D02*
X132314285Y-109605737D01*
X132314285Y-109605737D02*
X132295238Y-109643832D01*
X132295238Y-109643832D02*
X132276190Y-109662880D01*
X132276190Y-109662880D02*
X132238095Y-109681927D01*
X132238095Y-109681927D02*
X132123809Y-109681927D01*
X132123809Y-109681927D02*
X132085714Y-109662880D01*
X132085714Y-109662880D02*
X132066666Y-109643832D01*
D10*
X148928571Y-136954819D02*
X148357143Y-136954819D01*
X148642857Y-136954819D02*
X148642857Y-135954819D01*
X148642857Y-135954819D02*
X148547619Y-136097676D01*
X148547619Y-136097676D02*
X148452381Y-136192914D01*
X148452381Y-136192914D02*
X148357143Y-136240533D01*
X149547619Y-135954819D02*
X149642857Y-135954819D01*
X149642857Y-135954819D02*
X149738095Y-136002438D01*
X149738095Y-136002438D02*
X149785714Y-136050057D01*
X149785714Y-136050057D02*
X149833333Y-136145295D01*
X149833333Y-136145295D02*
X149880952Y-136335771D01*
X149880952Y-136335771D02*
X149880952Y-136573866D01*
X149880952Y-136573866D02*
X149833333Y-136764342D01*
X149833333Y-136764342D02*
X149785714Y-136859580D01*
X149785714Y-136859580D02*
X149738095Y-136907200D01*
X149738095Y-136907200D02*
X149642857Y-136954819D01*
X149642857Y-136954819D02*
X149547619Y-136954819D01*
X149547619Y-136954819D02*
X149452381Y-136907200D01*
X149452381Y-136907200D02*
X149404762Y-136859580D01*
X149404762Y-136859580D02*
X149357143Y-136764342D01*
X149357143Y-136764342D02*
X149309524Y-136573866D01*
X149309524Y-136573866D02*
X149309524Y-136335771D01*
X149309524Y-136335771D02*
X149357143Y-136145295D01*
X149357143Y-136145295D02*
X149404762Y-136050057D01*
X149404762Y-136050057D02*
X149452381Y-136002438D01*
X149452381Y-136002438D02*
X149547619Y-135954819D01*
X150738095Y-136288152D02*
X150738095Y-136954819D01*
X150309524Y-136288152D02*
X150309524Y-136811961D01*
X150309524Y-136811961D02*
X150357143Y-136907200D01*
X150357143Y-136907200D02*
X150452381Y-136954819D01*
X150452381Y-136954819D02*
X150595238Y-136954819D01*
X150595238Y-136954819D02*
X150690476Y-136907200D01*
X150690476Y-136907200D02*
X150738095Y-136859580D01*
X151547619Y-136431009D02*
X151214286Y-136431009D01*
X151214286Y-136954819D02*
X151214286Y-135954819D01*
X151214286Y-135954819D02*
X151690476Y-135954819D01*
D12*
X149916666Y-133679530D02*
X149892857Y-133703340D01*
X149892857Y-133703340D02*
X149821428Y-133727149D01*
X149821428Y-133727149D02*
X149773809Y-133727149D01*
X149773809Y-133727149D02*
X149702381Y-133703340D01*
X149702381Y-133703340D02*
X149654762Y-133655720D01*
X149654762Y-133655720D02*
X149630952Y-133608101D01*
X149630952Y-133608101D02*
X149607143Y-133512863D01*
X149607143Y-133512863D02*
X149607143Y-133441435D01*
X149607143Y-133441435D02*
X149630952Y-133346197D01*
X149630952Y-133346197D02*
X149654762Y-133298578D01*
X149654762Y-133298578D02*
X149702381Y-133250959D01*
X149702381Y-133250959D02*
X149773809Y-133227149D01*
X149773809Y-133227149D02*
X149821428Y-133227149D01*
X149821428Y-133227149D02*
X149892857Y-133250959D01*
X149892857Y-133250959D02*
X149916666Y-133274768D01*
X150369047Y-133227149D02*
X150130952Y-133227149D01*
X150130952Y-133227149D02*
X150107143Y-133465244D01*
X150107143Y-133465244D02*
X150130952Y-133441435D01*
X150130952Y-133441435D02*
X150178571Y-133417625D01*
X150178571Y-133417625D02*
X150297619Y-133417625D01*
X150297619Y-133417625D02*
X150345238Y-133441435D01*
X150345238Y-133441435D02*
X150369047Y-133465244D01*
X150369047Y-133465244D02*
X150392857Y-133512863D01*
X150392857Y-133512863D02*
X150392857Y-133631911D01*
X150392857Y-133631911D02*
X150369047Y-133679530D01*
X150369047Y-133679530D02*
X150345238Y-133703340D01*
X150345238Y-133703340D02*
X150297619Y-133727149D01*
X150297619Y-133727149D02*
X150178571Y-133727149D01*
X150178571Y-133727149D02*
X150130952Y-133703340D01*
X150130952Y-133703340D02*
X150107143Y-133679530D01*
D10*
X106976190Y-140954819D02*
X106976190Y-139954819D01*
X107547618Y-140954819D02*
X107119047Y-140383390D01*
X107547618Y-139954819D02*
X106976190Y-140526247D01*
X108452380Y-140954819D02*
X107976190Y-140954819D01*
X107976190Y-140954819D02*
X107976190Y-139954819D01*
X109071428Y-139954819D02*
X109071428Y-140669104D01*
X109071428Y-140669104D02*
X109023809Y-140811961D01*
X109023809Y-140811961D02*
X108928571Y-140907200D01*
X108928571Y-140907200D02*
X108785714Y-140954819D01*
X108785714Y-140954819D02*
X108690476Y-140954819D01*
X109547619Y-140573866D02*
X110309524Y-140573866D01*
X110976190Y-139954819D02*
X111071428Y-139954819D01*
X111071428Y-139954819D02*
X111166666Y-140002438D01*
X111166666Y-140002438D02*
X111214285Y-140050057D01*
X111214285Y-140050057D02*
X111261904Y-140145295D01*
X111261904Y-140145295D02*
X111309523Y-140335771D01*
X111309523Y-140335771D02*
X111309523Y-140573866D01*
X111309523Y-140573866D02*
X111261904Y-140764342D01*
X111261904Y-140764342D02*
X111214285Y-140859580D01*
X111214285Y-140859580D02*
X111166666Y-140907200D01*
X111166666Y-140907200D02*
X111071428Y-140954819D01*
X111071428Y-140954819D02*
X110976190Y-140954819D01*
X110976190Y-140954819D02*
X110880952Y-140907200D01*
X110880952Y-140907200D02*
X110833333Y-140859580D01*
X110833333Y-140859580D02*
X110785714Y-140764342D01*
X110785714Y-140764342D02*
X110738095Y-140573866D01*
X110738095Y-140573866D02*
X110738095Y-140335771D01*
X110738095Y-140335771D02*
X110785714Y-140145295D01*
X110785714Y-140145295D02*
X110833333Y-140050057D01*
X110833333Y-140050057D02*
X110880952Y-140002438D01*
X110880952Y-140002438D02*
X110976190Y-139954819D01*
X112261904Y-140954819D02*
X111690476Y-140954819D01*
X111976190Y-140954819D02*
X111976190Y-139954819D01*
X111976190Y-139954819D02*
X111880952Y-140097676D01*
X111880952Y-140097676D02*
X111785714Y-140192914D01*
X111785714Y-140192914D02*
X111690476Y-140240533D01*
X112595238Y-139954819D02*
X113214285Y-139954819D01*
X113214285Y-139954819D02*
X112880952Y-140335771D01*
X112880952Y-140335771D02*
X113023809Y-140335771D01*
X113023809Y-140335771D02*
X113119047Y-140383390D01*
X113119047Y-140383390D02*
X113166666Y-140431009D01*
X113166666Y-140431009D02*
X113214285Y-140526247D01*
X113214285Y-140526247D02*
X113214285Y-140764342D01*
X113214285Y-140764342D02*
X113166666Y-140859580D01*
X113166666Y-140859580D02*
X113119047Y-140907200D01*
X113119047Y-140907200D02*
X113023809Y-140954819D01*
X113023809Y-140954819D02*
X112738095Y-140954819D01*
X112738095Y-140954819D02*
X112642857Y-140907200D01*
X112642857Y-140907200D02*
X112595238Y-140859580D01*
X113833333Y-139954819D02*
X113928571Y-139954819D01*
X113928571Y-139954819D02*
X114023809Y-140002438D01*
X114023809Y-140002438D02*
X114071428Y-140050057D01*
X114071428Y-140050057D02*
X114119047Y-140145295D01*
X114119047Y-140145295D02*
X114166666Y-140335771D01*
X114166666Y-140335771D02*
X114166666Y-140573866D01*
X114166666Y-140573866D02*
X114119047Y-140764342D01*
X114119047Y-140764342D02*
X114071428Y-140859580D01*
X114071428Y-140859580D02*
X114023809Y-140907200D01*
X114023809Y-140907200D02*
X113928571Y-140954819D01*
X113928571Y-140954819D02*
X113833333Y-140954819D01*
X113833333Y-140954819D02*
X113738095Y-140907200D01*
X113738095Y-140907200D02*
X113690476Y-140859580D01*
X113690476Y-140859580D02*
X113642857Y-140764342D01*
X113642857Y-140764342D02*
X113595238Y-140573866D01*
X113595238Y-140573866D02*
X113595238Y-140335771D01*
X113595238Y-140335771D02*
X113642857Y-140145295D01*
X113642857Y-140145295D02*
X113690476Y-140050057D01*
X113690476Y-140050057D02*
X113738095Y-140002438D01*
X113738095Y-140002438D02*
X113833333Y-139954819D01*
X115023809Y-140288152D02*
X115023809Y-140954819D01*
X114785714Y-139907200D02*
X114547619Y-140621485D01*
X114547619Y-140621485D02*
X115166666Y-140621485D01*
X115404762Y-139954819D02*
X115976190Y-139954819D01*
X115690476Y-140954819D02*
X115690476Y-139954819D01*
X116309524Y-140573866D02*
X117071429Y-140573866D01*
X117738095Y-139954819D02*
X117833333Y-139954819D01*
X117833333Y-139954819D02*
X117928571Y-140002438D01*
X117928571Y-140002438D02*
X117976190Y-140050057D01*
X117976190Y-140050057D02*
X118023809Y-140145295D01*
X118023809Y-140145295D02*
X118071428Y-140335771D01*
X118071428Y-140335771D02*
X118071428Y-140573866D01*
X118071428Y-140573866D02*
X118023809Y-140764342D01*
X118023809Y-140764342D02*
X117976190Y-140859580D01*
X117976190Y-140859580D02*
X117928571Y-140907200D01*
X117928571Y-140907200D02*
X117833333Y-140954819D01*
X117833333Y-140954819D02*
X117738095Y-140954819D01*
X117738095Y-140954819D02*
X117642857Y-140907200D01*
X117642857Y-140907200D02*
X117595238Y-140859580D01*
X117595238Y-140859580D02*
X117547619Y-140764342D01*
X117547619Y-140764342D02*
X117500000Y-140573866D01*
X117500000Y-140573866D02*
X117500000Y-140335771D01*
X117500000Y-140335771D02*
X117547619Y-140145295D01*
X117547619Y-140145295D02*
X117595238Y-140050057D01*
X117595238Y-140050057D02*
X117642857Y-140002438D01*
X117642857Y-140002438D02*
X117738095Y-139954819D01*
X118642857Y-140383390D02*
X118547619Y-140335771D01*
X118547619Y-140335771D02*
X118500000Y-140288152D01*
X118500000Y-140288152D02*
X118452381Y-140192914D01*
X118452381Y-140192914D02*
X118452381Y-140145295D01*
X118452381Y-140145295D02*
X118500000Y-140050057D01*
X118500000Y-140050057D02*
X118547619Y-140002438D01*
X118547619Y-140002438D02*
X118642857Y-139954819D01*
X118642857Y-139954819D02*
X118833333Y-139954819D01*
X118833333Y-139954819D02*
X118928571Y-140002438D01*
X118928571Y-140002438D02*
X118976190Y-140050057D01*
X118976190Y-140050057D02*
X119023809Y-140145295D01*
X119023809Y-140145295D02*
X119023809Y-140192914D01*
X119023809Y-140192914D02*
X118976190Y-140288152D01*
X118976190Y-140288152D02*
X118928571Y-140335771D01*
X118928571Y-140335771D02*
X118833333Y-140383390D01*
X118833333Y-140383390D02*
X118642857Y-140383390D01*
X118642857Y-140383390D02*
X118547619Y-140431009D01*
X118547619Y-140431009D02*
X118500000Y-140478628D01*
X118500000Y-140478628D02*
X118452381Y-140573866D01*
X118452381Y-140573866D02*
X118452381Y-140764342D01*
X118452381Y-140764342D02*
X118500000Y-140859580D01*
X118500000Y-140859580D02*
X118547619Y-140907200D01*
X118547619Y-140907200D02*
X118642857Y-140954819D01*
X118642857Y-140954819D02*
X118833333Y-140954819D01*
X118833333Y-140954819D02*
X118928571Y-140907200D01*
X118928571Y-140907200D02*
X118976190Y-140859580D01*
X118976190Y-140859580D02*
X119023809Y-140764342D01*
X119023809Y-140764342D02*
X119023809Y-140573866D01*
X119023809Y-140573866D02*
X118976190Y-140478628D01*
X118976190Y-140478628D02*
X118928571Y-140431009D01*
X118928571Y-140431009D02*
X118833333Y-140383390D01*
X120023809Y-140954819D02*
X119690476Y-140478628D01*
X119452381Y-140954819D02*
X119452381Y-139954819D01*
X119452381Y-139954819D02*
X119833333Y-139954819D01*
X119833333Y-139954819D02*
X119928571Y-140002438D01*
X119928571Y-140002438D02*
X119976190Y-140050057D01*
X119976190Y-140050057D02*
X120023809Y-140145295D01*
X120023809Y-140145295D02*
X120023809Y-140288152D01*
X120023809Y-140288152D02*
X119976190Y-140383390D01*
X119976190Y-140383390D02*
X119928571Y-140431009D01*
X119928571Y-140431009D02*
X119833333Y-140478628D01*
X119833333Y-140478628D02*
X119452381Y-140478628D01*
X120642857Y-139954819D02*
X120738095Y-139954819D01*
X120738095Y-139954819D02*
X120833333Y-140002438D01*
X120833333Y-140002438D02*
X120880952Y-140050057D01*
X120880952Y-140050057D02*
X120928571Y-140145295D01*
X120928571Y-140145295D02*
X120976190Y-140335771D01*
X120976190Y-140335771D02*
X120976190Y-140573866D01*
X120976190Y-140573866D02*
X120928571Y-140764342D01*
X120928571Y-140764342D02*
X120880952Y-140859580D01*
X120880952Y-140859580D02*
X120833333Y-140907200D01*
X120833333Y-140907200D02*
X120738095Y-140954819D01*
X120738095Y-140954819D02*
X120642857Y-140954819D01*
X120642857Y-140954819D02*
X120547619Y-140907200D01*
X120547619Y-140907200D02*
X120500000Y-140859580D01*
X120500000Y-140859580D02*
X120452381Y-140764342D01*
X120452381Y-140764342D02*
X120404762Y-140573866D01*
X120404762Y-140573866D02*
X120404762Y-140335771D01*
X120404762Y-140335771D02*
X120452381Y-140145295D01*
X120452381Y-140145295D02*
X120500000Y-140050057D01*
X120500000Y-140050057D02*
X120547619Y-140002438D01*
X120547619Y-140002438D02*
X120642857Y-139954819D01*
X121309524Y-139954819D02*
X121976190Y-139954819D01*
X121976190Y-139954819D02*
X121547619Y-140954819D01*
X122261905Y-139954819D02*
X122500000Y-140954819D01*
X122500000Y-140954819D02*
X122690476Y-140240533D01*
X122690476Y-140240533D02*
X122880952Y-140954819D01*
X122880952Y-140954819D02*
X123119048Y-139954819D01*
X114357142Y-137954819D02*
X113880952Y-137954819D01*
X113880952Y-137954819D02*
X113880952Y-136954819D01*
X114642857Y-137907200D02*
X114785714Y-137954819D01*
X114785714Y-137954819D02*
X115023809Y-137954819D01*
X115023809Y-137954819D02*
X115119047Y-137907200D01*
X115119047Y-137907200D02*
X115166666Y-137859580D01*
X115166666Y-137859580D02*
X115214285Y-137764342D01*
X115214285Y-137764342D02*
X115214285Y-137669104D01*
X115214285Y-137669104D02*
X115166666Y-137573866D01*
X115166666Y-137573866D02*
X115119047Y-137526247D01*
X115119047Y-137526247D02*
X115023809Y-137478628D01*
X115023809Y-137478628D02*
X114833333Y-137431009D01*
X114833333Y-137431009D02*
X114738095Y-137383390D01*
X114738095Y-137383390D02*
X114690476Y-137335771D01*
X114690476Y-137335771D02*
X114642857Y-137240533D01*
X114642857Y-137240533D02*
X114642857Y-137145295D01*
X114642857Y-137145295D02*
X114690476Y-137050057D01*
X114690476Y-137050057D02*
X114738095Y-137002438D01*
X114738095Y-137002438D02*
X114833333Y-136954819D01*
X114833333Y-136954819D02*
X115071428Y-136954819D01*
X115071428Y-136954819D02*
X115214285Y-137002438D01*
X116166666Y-137954819D02*
X115595238Y-137954819D01*
X115880952Y-137954819D02*
X115880952Y-136954819D01*
X115880952Y-136954819D02*
X115785714Y-137097676D01*
X115785714Y-137097676D02*
X115690476Y-137192914D01*
X115690476Y-137192914D02*
X115595238Y-137240533D01*
X109952380Y-122002438D02*
X109857142Y-121954819D01*
X109857142Y-121954819D02*
X109714285Y-121954819D01*
X109714285Y-121954819D02*
X109571428Y-122002438D01*
X109571428Y-122002438D02*
X109476190Y-122097676D01*
X109476190Y-122097676D02*
X109428571Y-122192914D01*
X109428571Y-122192914D02*
X109380952Y-122383390D01*
X109380952Y-122383390D02*
X109380952Y-122526247D01*
X109380952Y-122526247D02*
X109428571Y-122716723D01*
X109428571Y-122716723D02*
X109476190Y-122811961D01*
X109476190Y-122811961D02*
X109571428Y-122907200D01*
X109571428Y-122907200D02*
X109714285Y-122954819D01*
X109714285Y-122954819D02*
X109809523Y-122954819D01*
X109809523Y-122954819D02*
X109952380Y-122907200D01*
X109952380Y-122907200D02*
X109999999Y-122859580D01*
X109999999Y-122859580D02*
X109999999Y-122526247D01*
X109999999Y-122526247D02*
X109809523Y-122526247D01*
X110904761Y-122954819D02*
X110428571Y-122954819D01*
X110428571Y-122954819D02*
X110428571Y-121954819D01*
X111714285Y-121954819D02*
X111238095Y-121954819D01*
X111238095Y-121954819D02*
X111190476Y-122431009D01*
X111190476Y-122431009D02*
X111238095Y-122383390D01*
X111238095Y-122383390D02*
X111333333Y-122335771D01*
X111333333Y-122335771D02*
X111571428Y-122335771D01*
X111571428Y-122335771D02*
X111666666Y-122383390D01*
X111666666Y-122383390D02*
X111714285Y-122431009D01*
X111714285Y-122431009D02*
X111761904Y-122526247D01*
X111761904Y-122526247D02*
X111761904Y-122764342D01*
X111761904Y-122764342D02*
X111714285Y-122859580D01*
X111714285Y-122859580D02*
X111666666Y-122907200D01*
X111666666Y-122907200D02*
X111571428Y-122954819D01*
X111571428Y-122954819D02*
X111333333Y-122954819D01*
X111333333Y-122954819D02*
X111238095Y-122907200D01*
X111238095Y-122907200D02*
X111190476Y-122859580D01*
X112666666Y-121954819D02*
X112190476Y-121954819D01*
X112190476Y-121954819D02*
X112142857Y-122431009D01*
X112142857Y-122431009D02*
X112190476Y-122383390D01*
X112190476Y-122383390D02*
X112285714Y-122335771D01*
X112285714Y-122335771D02*
X112523809Y-122335771D01*
X112523809Y-122335771D02*
X112619047Y-122383390D01*
X112619047Y-122383390D02*
X112666666Y-122431009D01*
X112666666Y-122431009D02*
X112714285Y-122526247D01*
X112714285Y-122526247D02*
X112714285Y-122764342D01*
X112714285Y-122764342D02*
X112666666Y-122859580D01*
X112666666Y-122859580D02*
X112619047Y-122907200D01*
X112619047Y-122907200D02*
X112523809Y-122954819D01*
X112523809Y-122954819D02*
X112285714Y-122954819D01*
X112285714Y-122954819D02*
X112190476Y-122907200D01*
X112190476Y-122907200D02*
X112142857Y-122859580D01*
X113095238Y-122050057D02*
X113142857Y-122002438D01*
X113142857Y-122002438D02*
X113238095Y-121954819D01*
X113238095Y-121954819D02*
X113476190Y-121954819D01*
X113476190Y-121954819D02*
X113571428Y-122002438D01*
X113571428Y-122002438D02*
X113619047Y-122050057D01*
X113619047Y-122050057D02*
X113666666Y-122145295D01*
X113666666Y-122145295D02*
X113666666Y-122240533D01*
X113666666Y-122240533D02*
X113619047Y-122383390D01*
X113619047Y-122383390D02*
X113047619Y-122954819D01*
X113047619Y-122954819D02*
X113666666Y-122954819D01*
X114238095Y-122383390D02*
X114142857Y-122335771D01*
X114142857Y-122335771D02*
X114095238Y-122288152D01*
X114095238Y-122288152D02*
X114047619Y-122192914D01*
X114047619Y-122192914D02*
X114047619Y-122145295D01*
X114047619Y-122145295D02*
X114095238Y-122050057D01*
X114095238Y-122050057D02*
X114142857Y-122002438D01*
X114142857Y-122002438D02*
X114238095Y-121954819D01*
X114238095Y-121954819D02*
X114428571Y-121954819D01*
X114428571Y-121954819D02*
X114523809Y-122002438D01*
X114523809Y-122002438D02*
X114571428Y-122050057D01*
X114571428Y-122050057D02*
X114619047Y-122145295D01*
X114619047Y-122145295D02*
X114619047Y-122192914D01*
X114619047Y-122192914D02*
X114571428Y-122288152D01*
X114571428Y-122288152D02*
X114523809Y-122335771D01*
X114523809Y-122335771D02*
X114428571Y-122383390D01*
X114428571Y-122383390D02*
X114238095Y-122383390D01*
X114238095Y-122383390D02*
X114142857Y-122431009D01*
X114142857Y-122431009D02*
X114095238Y-122478628D01*
X114095238Y-122478628D02*
X114047619Y-122573866D01*
X114047619Y-122573866D02*
X114047619Y-122764342D01*
X114047619Y-122764342D02*
X114095238Y-122859580D01*
X114095238Y-122859580D02*
X114142857Y-122907200D01*
X114142857Y-122907200D02*
X114238095Y-122954819D01*
X114238095Y-122954819D02*
X114428571Y-122954819D01*
X114428571Y-122954819D02*
X114523809Y-122907200D01*
X114523809Y-122907200D02*
X114571428Y-122859580D01*
X114571428Y-122859580D02*
X114619047Y-122764342D01*
X114619047Y-122764342D02*
X114619047Y-122573866D01*
X114619047Y-122573866D02*
X114571428Y-122478628D01*
X114571428Y-122478628D02*
X114523809Y-122431009D01*
X114523809Y-122431009D02*
X114428571Y-122383390D01*
X111833333Y-119954819D02*
X111500000Y-119478628D01*
X111261905Y-119954819D02*
X111261905Y-118954819D01*
X111261905Y-118954819D02*
X111642857Y-118954819D01*
X111642857Y-118954819D02*
X111738095Y-119002438D01*
X111738095Y-119002438D02*
X111785714Y-119050057D01*
X111785714Y-119050057D02*
X111833333Y-119145295D01*
X111833333Y-119145295D02*
X111833333Y-119288152D01*
X111833333Y-119288152D02*
X111785714Y-119383390D01*
X111785714Y-119383390D02*
X111738095Y-119431009D01*
X111738095Y-119431009D02*
X111642857Y-119478628D01*
X111642857Y-119478628D02*
X111261905Y-119478628D01*
X112785714Y-119954819D02*
X112214286Y-119954819D01*
X112500000Y-119954819D02*
X112500000Y-118954819D01*
X112500000Y-118954819D02*
X112404762Y-119097676D01*
X112404762Y-119097676D02*
X112309524Y-119192914D01*
X112309524Y-119192914D02*
X112214286Y-119240533D01*
X158452380Y-120954819D02*
X157880952Y-120954819D01*
X158166666Y-120954819D02*
X158166666Y-119954819D01*
X158166666Y-119954819D02*
X158071428Y-120097676D01*
X158071428Y-120097676D02*
X157976190Y-120192914D01*
X157976190Y-120192914D02*
X157880952Y-120240533D01*
X159071428Y-119954819D02*
X159166666Y-119954819D01*
X159166666Y-119954819D02*
X159261904Y-120002438D01*
X159261904Y-120002438D02*
X159309523Y-120050057D01*
X159309523Y-120050057D02*
X159357142Y-120145295D01*
X159357142Y-120145295D02*
X159404761Y-120335771D01*
X159404761Y-120335771D02*
X159404761Y-120573866D01*
X159404761Y-120573866D02*
X159357142Y-120764342D01*
X159357142Y-120764342D02*
X159309523Y-120859580D01*
X159309523Y-120859580D02*
X159261904Y-120907200D01*
X159261904Y-120907200D02*
X159166666Y-120954819D01*
X159166666Y-120954819D02*
X159071428Y-120954819D01*
X159071428Y-120954819D02*
X158976190Y-120907200D01*
X158976190Y-120907200D02*
X158928571Y-120859580D01*
X158928571Y-120859580D02*
X158880952Y-120764342D01*
X158880952Y-120764342D02*
X158833333Y-120573866D01*
X158833333Y-120573866D02*
X158833333Y-120335771D01*
X158833333Y-120335771D02*
X158880952Y-120145295D01*
X158880952Y-120145295D02*
X158928571Y-120050057D01*
X158928571Y-120050057D02*
X158976190Y-120002438D01*
X158976190Y-120002438D02*
X159071428Y-119954819D01*
X160023809Y-119954819D02*
X160119047Y-119954819D01*
X160119047Y-119954819D02*
X160214285Y-120002438D01*
X160214285Y-120002438D02*
X160261904Y-120050057D01*
X160261904Y-120050057D02*
X160309523Y-120145295D01*
X160309523Y-120145295D02*
X160357142Y-120335771D01*
X160357142Y-120335771D02*
X160357142Y-120573866D01*
X160357142Y-120573866D02*
X160309523Y-120764342D01*
X160309523Y-120764342D02*
X160261904Y-120859580D01*
X160261904Y-120859580D02*
X160214285Y-120907200D01*
X160214285Y-120907200D02*
X160119047Y-120954819D01*
X160119047Y-120954819D02*
X160023809Y-120954819D01*
X160023809Y-120954819D02*
X159928571Y-120907200D01*
X159928571Y-120907200D02*
X159880952Y-120859580D01*
X159880952Y-120859580D02*
X159833333Y-120764342D01*
X159833333Y-120764342D02*
X159785714Y-120573866D01*
X159785714Y-120573866D02*
X159785714Y-120335771D01*
X159785714Y-120335771D02*
X159833333Y-120145295D01*
X159833333Y-120145295D02*
X159880952Y-120050057D01*
X159880952Y-120050057D02*
X159928571Y-120002438D01*
X159928571Y-120002438D02*
X160023809Y-119954819D01*
X160785714Y-120288152D02*
X160785714Y-120954819D01*
X160785714Y-120383390D02*
X160833333Y-120335771D01*
X160833333Y-120335771D02*
X160928571Y-120288152D01*
X160928571Y-120288152D02*
X161071428Y-120288152D01*
X161071428Y-120288152D02*
X161166666Y-120335771D01*
X161166666Y-120335771D02*
X161214285Y-120431009D01*
X161214285Y-120431009D02*
X161214285Y-120954819D01*
X162023809Y-120431009D02*
X161690476Y-120431009D01*
X161690476Y-120954819D02*
X161690476Y-119954819D01*
X161690476Y-119954819D02*
X162166666Y-119954819D01*
D11*
X159933333Y-117643832D02*
X159914285Y-117662880D01*
X159914285Y-117662880D02*
X159857143Y-117681927D01*
X159857143Y-117681927D02*
X159819047Y-117681927D01*
X159819047Y-117681927D02*
X159761904Y-117662880D01*
X159761904Y-117662880D02*
X159723809Y-117624784D01*
X159723809Y-117624784D02*
X159704762Y-117586689D01*
X159704762Y-117586689D02*
X159685714Y-117510499D01*
X159685714Y-117510499D02*
X159685714Y-117453356D01*
X159685714Y-117453356D02*
X159704762Y-117377165D01*
X159704762Y-117377165D02*
X159723809Y-117339070D01*
X159723809Y-117339070D02*
X159761904Y-117300975D01*
X159761904Y-117300975D02*
X159819047Y-117281927D01*
X159819047Y-117281927D02*
X159857143Y-117281927D01*
X159857143Y-117281927D02*
X159914285Y-117300975D01*
X159914285Y-117300975D02*
X159933333Y-117320022D01*
X160276190Y-117281927D02*
X160200000Y-117281927D01*
X160200000Y-117281927D02*
X160161904Y-117300975D01*
X160161904Y-117300975D02*
X160142857Y-117320022D01*
X160142857Y-117320022D02*
X160104762Y-117377165D01*
X160104762Y-117377165D02*
X160085714Y-117453356D01*
X160085714Y-117453356D02*
X160085714Y-117605737D01*
X160085714Y-117605737D02*
X160104762Y-117643832D01*
X160104762Y-117643832D02*
X160123809Y-117662880D01*
X160123809Y-117662880D02*
X160161904Y-117681927D01*
X160161904Y-117681927D02*
X160238095Y-117681927D01*
X160238095Y-117681927D02*
X160276190Y-117662880D01*
X160276190Y-117662880D02*
X160295238Y-117643832D01*
X160295238Y-117643832D02*
X160314285Y-117605737D01*
X160314285Y-117605737D02*
X160314285Y-117510499D01*
X160314285Y-117510499D02*
X160295238Y-117472403D01*
X160295238Y-117472403D02*
X160276190Y-117453356D01*
X160276190Y-117453356D02*
X160238095Y-117434308D01*
X160238095Y-117434308D02*
X160161904Y-117434308D01*
X160161904Y-117434308D02*
X160123809Y-117453356D01*
X160123809Y-117453356D02*
X160104762Y-117472403D01*
X160104762Y-117472403D02*
X160085714Y-117510499D01*
D10*
X131404761Y-148954819D02*
X130833333Y-148954819D01*
X131119047Y-148954819D02*
X131119047Y-147954819D01*
X131119047Y-147954819D02*
X131023809Y-148097676D01*
X131023809Y-148097676D02*
X130928571Y-148192914D01*
X130928571Y-148192914D02*
X130833333Y-148240533D01*
X132023809Y-147954819D02*
X132119047Y-147954819D01*
X132119047Y-147954819D02*
X132214285Y-148002438D01*
X132214285Y-148002438D02*
X132261904Y-148050057D01*
X132261904Y-148050057D02*
X132309523Y-148145295D01*
X132309523Y-148145295D02*
X132357142Y-148335771D01*
X132357142Y-148335771D02*
X132357142Y-148573866D01*
X132357142Y-148573866D02*
X132309523Y-148764342D01*
X132309523Y-148764342D02*
X132261904Y-148859580D01*
X132261904Y-148859580D02*
X132214285Y-148907200D01*
X132214285Y-148907200D02*
X132119047Y-148954819D01*
X132119047Y-148954819D02*
X132023809Y-148954819D01*
X132023809Y-148954819D02*
X131928571Y-148907200D01*
X131928571Y-148907200D02*
X131880952Y-148859580D01*
X131880952Y-148859580D02*
X131833333Y-148764342D01*
X131833333Y-148764342D02*
X131785714Y-148573866D01*
X131785714Y-148573866D02*
X131785714Y-148335771D01*
X131785714Y-148335771D02*
X131833333Y-148145295D01*
X131833333Y-148145295D02*
X131880952Y-148050057D01*
X131880952Y-148050057D02*
X131928571Y-148002438D01*
X131928571Y-148002438D02*
X132023809Y-147954819D01*
X132785714Y-148954819D02*
X132785714Y-147954819D01*
X132880952Y-148573866D02*
X133166666Y-148954819D01*
X133166666Y-148288152D02*
X132785714Y-148669104D01*
D11*
X131933333Y-145681927D02*
X131800000Y-145491451D01*
X131704762Y-145681927D02*
X131704762Y-145281927D01*
X131704762Y-145281927D02*
X131857143Y-145281927D01*
X131857143Y-145281927D02*
X131895238Y-145300975D01*
X131895238Y-145300975D02*
X131914285Y-145320022D01*
X131914285Y-145320022D02*
X131933333Y-145358118D01*
X131933333Y-145358118D02*
X131933333Y-145415260D01*
X131933333Y-145415260D02*
X131914285Y-145453356D01*
X131914285Y-145453356D02*
X131895238Y-145472403D01*
X131895238Y-145472403D02*
X131857143Y-145491451D01*
X131857143Y-145491451D02*
X131704762Y-145491451D01*
X132276190Y-145415260D02*
X132276190Y-145681927D01*
X132180952Y-145262880D02*
X132085714Y-145548594D01*
X132085714Y-145548594D02*
X132333333Y-145548594D01*
D13*
%TO.C,R2*%
X111200000Y-109087500D02*
X112800000Y-109087500D01*
X111200000Y-109912500D02*
X111200000Y-109087500D01*
X112800000Y-109087500D02*
X112800000Y-109912500D01*
X112800000Y-109912500D02*
X111200000Y-109912500D01*
%TO.C,C4*%
X131200000Y-115100000D02*
X132800000Y-115100000D01*
X131200000Y-115900000D02*
X131200000Y-115100000D01*
X132800000Y-115100000D02*
X132800000Y-115900000D01*
X132800000Y-115900000D02*
X131200000Y-115900000D01*
%TO.C,C3*%
X149200000Y-121100000D02*
X150800000Y-121100000D01*
X149200000Y-121900000D02*
X149200000Y-121100000D01*
X150800000Y-121100000D02*
X150800000Y-121900000D01*
X150800000Y-121900000D02*
X149200000Y-121900000D01*
D11*
%TO.C,U2*%
X157440000Y-113420000D02*
G75*
G02*
X157380000Y-113420000I-30000J0D01*
G01*
X157380000Y-113420000D02*
G75*
G02*
X157440000Y-113420000I30000J0D01*
G01*
D13*
%TO.C,C1*%
X125200000Y-121100000D02*
X126800000Y-121100000D01*
X125200000Y-121900000D02*
X125200000Y-121100000D01*
X126800000Y-121100000D02*
X126800000Y-121900000D01*
X126800000Y-121900000D02*
X125200000Y-121900000D01*
D11*
%TO.C,U1*%
X133530000Y-132000000D02*
G75*
G02*
X133470000Y-132000000I-30000J0D01*
G01*
X133470000Y-132000000D02*
G75*
G02*
X133530000Y-132000000I30000J0D01*
G01*
%TO.C,BT1*%
X182680000Y-119500000D02*
G75*
G02*
X182620000Y-119500000I-30000J0D01*
G01*
X182620000Y-119500000D02*
G75*
G02*
X182680000Y-119500000I30000J0D01*
G01*
D13*
%TO.C,SW1*%
X162800000Y-143400000D02*
X162800000Y-143900000D01*
X162800000Y-143900000D02*
X163800000Y-143900000D01*
X162800000Y-147100000D02*
X163800000Y-147100000D01*
X162800000Y-147600000D02*
X162800000Y-147100000D01*
X163300000Y-143400000D02*
X163300000Y-143900000D01*
X163300000Y-147600000D02*
X163300000Y-147100000D01*
X163400000Y-144300000D02*
X163400000Y-146700000D01*
X163400000Y-146700000D02*
X164800000Y-148100000D01*
X164000000Y-144500000D02*
X165000000Y-143500000D01*
X164000000Y-146500000D02*
X164000000Y-144500000D01*
X164300000Y-143400000D02*
X162800000Y-143400000D01*
X164300000Y-147600000D02*
X162800000Y-147600000D01*
X164800000Y-142900000D02*
X163400000Y-144300000D01*
X164800000Y-148100000D02*
X167200000Y-148100000D01*
X165000000Y-143500000D02*
X167000000Y-143500000D01*
X165000000Y-147500000D02*
X164000000Y-146500000D01*
X167000000Y-143500000D02*
X168000000Y-144500000D01*
X167000000Y-147500000D02*
X165000000Y-147500000D01*
X167200000Y-142900000D02*
X164800000Y-142900000D01*
X167200000Y-148100000D02*
X168600000Y-146700000D01*
X167700000Y-143400000D02*
X169200000Y-143400000D01*
X167700000Y-147600000D02*
X169200000Y-147600000D01*
X168000000Y-144500000D02*
X168000000Y-146500000D01*
X168000000Y-146500000D02*
X167000000Y-147500000D01*
X168600000Y-144300000D02*
X167200000Y-142900000D01*
X168600000Y-146700000D02*
X168600000Y-144300000D01*
X168700000Y-143400000D02*
X168700000Y-143900000D01*
X168700000Y-147600000D02*
X168700000Y-147100000D01*
X169200000Y-143400000D02*
X169200000Y-143900000D01*
X169200000Y-143900000D02*
X168200000Y-143900000D01*
X169200000Y-147100000D02*
X168200000Y-147100000D01*
X169200000Y-147600000D02*
X169200000Y-147100000D01*
X167000000Y-145500000D02*
G75*
G02*
X165000000Y-145500000I-1000000J0D01*
G01*
X165000000Y-145500000D02*
G75*
G02*
X167000000Y-145500000I1000000J0D01*
G01*
%TO.C,J2*%
X148730000Y-146365000D02*
X149365000Y-145730000D01*
X148730000Y-150810000D02*
X148730000Y-146365000D01*
X149365000Y-145730000D02*
X151270000Y-145730000D01*
X151270000Y-145730000D02*
X151270000Y-150810000D01*
X151270000Y-150810000D02*
X148730000Y-150810000D01*
%TO.C,C2*%
X125000000Y-132875000D02*
X127000000Y-132875000D01*
X125000000Y-134125000D02*
X125000000Y-132875000D01*
X127000000Y-132875000D02*
X127000000Y-134125000D01*
X127000000Y-134125000D02*
X125000000Y-134125000D01*
%TO.C,R3*%
X131200000Y-109087500D02*
X132800000Y-109087500D01*
X131200000Y-109912500D02*
X131200000Y-109087500D01*
X132800000Y-109087500D02*
X132800000Y-109912500D01*
X132800000Y-109912500D02*
X131200000Y-109912500D01*
%TO.C,C5*%
X149000000Y-132875000D02*
X151000000Y-132875000D01*
X149000000Y-134125000D02*
X149000000Y-132875000D01*
X151000000Y-132875000D02*
X151000000Y-134125000D01*
X151000000Y-134125000D02*
X149000000Y-134125000D01*
D11*
%TO.C,LS1*%
X108530000Y-144000000D02*
G75*
G02*
X108470000Y-144000000I-30000J0D01*
G01*
X108470000Y-144000000D02*
G75*
G02*
X108530000Y-144000000I30000J0D01*
G01*
%TO.C,R1*%
X109780000Y-116950000D02*
G75*
G02*
X109720000Y-116950000I-30000J0D01*
G01*
X109720000Y-116950000D02*
G75*
G02*
X109780000Y-116950000I30000J0D01*
G01*
D14*
X112120000Y-117800000D02*
G75*
G02*
X111880000Y-117800000I-120000J0D01*
G01*
X111880000Y-117800000D02*
G75*
G02*
X112120000Y-117800000I120000J0D01*
G01*
X112120000Y-121200000D02*
G75*
G02*
X111880000Y-121200000I-120000J0D01*
G01*
X111880000Y-121200000D02*
G75*
G02*
X112120000Y-121200000I120000J0D01*
G01*
D13*
%TO.C,C6*%
X159200000Y-117100000D02*
X160800000Y-117100000D01*
X159200000Y-117900000D02*
X159200000Y-117100000D01*
X160800000Y-117100000D02*
X160800000Y-117900000D01*
X160800000Y-117900000D02*
X159200000Y-117900000D01*
%TO.C,R4*%
X131200000Y-145087500D02*
X132800000Y-145087500D01*
X131200000Y-145912500D02*
X131200000Y-145087500D01*
X132800000Y-145087500D02*
X132800000Y-145912500D01*
X132800000Y-145912500D02*
X131200000Y-145912500D01*
%TD*%
M02*
