M48
; DRILL file {KiCad 9.0.6} date 2025-12-31T11:43:28-0500
; FORMAT={-:-/ absolute / metric / decimal}
; #@! TF.CreationDate,2025-12-31T11:43:28-05:00
; #@! TF.GenerationSoftware,Kicad,Pcbnew,9.0.6
; #@! TF.FileFunction,MixedPlating,1,2
FMAT,2
METRIC
; #@! TA.AperFunction,Plated,PTH,ViaDrill
T1C0.300
; #@! TA.AperFunction,Plated,PTH,ComponentDrill
T2C0.762
; #@! TA.AperFunction,Plated,PTH,ComponentDrill
T3C1.000
%
G90
G05
T1
X129.989Y-141.85
X136.391Y-129.556
X137.75Y-121.992
X138.629Y-115.838
X138.769Y-128.414
X138.769Y-133.327
X140.61Y-114.482
X140.61Y-129.712
X141.479Y-124.103
X142.501Y-121.5
X142.501Y-131.75
X144.169Y-127.75
X145.156Y-113.03
X145.156Y-129.226
X146.095Y-103.883
X146.095Y-127.488
X146.165Y-141.316
X149.01Y-144.311
X149.519Y-129.857
X152.118Y-133.31
X154.007Y-104.518
X155.216Y-124.788
T2
X112.0Y-117.8
X112.0Y-121.2
T3
X150.0Y-147.0
X150.0Y-149.54
M30
