%TF.GenerationSoftware,KiCad,Pcbnew,9.0.6*%
%TF.CreationDate,2025-12-30T23:05:50-05:00*%
%TF.ProjectId,singingcard,73696e67-696e-4676-9361-72642e6b6963,1.0*%
%TF.SameCoordinates,Original*%
%TF.FileFunction,Copper,L2,Bot*%
%TF.FilePolarity,Positive*%
%FSLAX46Y46*%
G04 Gerber Fmt 4.6, Leading zero omitted, Abs format (unit mm)*
G04 Created by KiCad (PCBNEW 9.0.6) date 2025-12-30 23:05:50*
%MOMM*%
%LPD*%
G01*
G04 APERTURE LIST*
%TA.AperFunction,ComponentPad*%
%ADD10R,1.700000X1.700000*%
%TD*%
%TA.AperFunction,ComponentPad*%
%ADD11C,1.700000*%
%TD*%
%TA.AperFunction,ComponentPad*%
%ADD12C,1.520000*%
%TD*%
%TA.AperFunction,ViaPad*%
%ADD13C,0.600000*%
%TD*%
%TA.AperFunction,Conductor*%
%ADD14C,0.250000*%
%TD*%
G04 APERTURE END LIST*
D10*
%TO.P,J1,1*%
%TO.N,N$1*%
X115000000Y-147000000D03*
D11*
%TO.P,J1,2*%
%TO.N,N$2*%
X115000000Y-149540000D03*
%TD*%
D10*
%TO.P,J2,1*%
%TO.N,GPIO2_TAB*%
X150000000Y-147000000D03*
D11*
%TO.P,J2,2*%
%TO.N,GND*%
X150000000Y-149540000D03*
%TD*%
D12*
%TO.P,R1,1*%
%TO.N,GPIO0_LDR*%
X112000000Y-117800000D03*
%TO.P,R1,2*%
%TO.N,GND*%
X112000000Y-121200000D03*
%TD*%
D13*
%TO.N,GND*%
X132464000Y-126836400D03*
X135979400Y-128383000D03*
X135979400Y-121079700D03*
%TO.N,VREG*%
X148377000Y-122301700D03*
X145821000Y-132826700D03*
%TO.N,N$1*%
X145194100Y-147000000D03*
X144537100Y-127750000D03*
%TO.N,N$2*%
X140885200Y-149540000D03*
X140885200Y-127170600D03*
%TO.N,GPIO2_TAB*%
X139563000Y-145053300D03*
X139563000Y-124508500D03*
%TO.N,RESET*%
X132825000Y-110501500D03*
X132825000Y-122173300D03*
%TO.N,GPIO1_BTN*%
X136989500Y-143600000D03*
X136989500Y-124526900D03*
%TO.N,SPI_SCK*%
X144482500Y-129712900D03*
X152848100Y-121795100D03*
%TD*%
D14*
%TO.N,GND*%
X135979400Y-126836400D02*
X135979400Y-121079700D01*
X135979400Y-128383000D02*
X135979400Y-126836400D01*
X135979400Y-126836400D02*
X132464000Y-126836400D01*
%TO.N,VREG*%
X148377000Y-122301700D02*
X148377000Y-130270700D01*
X148377000Y-130270700D02*
X145821000Y-132826700D01*
%TO.N,N$1*%
X145194100Y-147000000D02*
X145194100Y-128407000D01*
X145194100Y-128407000D02*
X144537100Y-127750000D01*
%TO.N,N$2*%
X140885200Y-149540000D02*
X140885200Y-127170600D01*
%TO.N,GPIO2_TAB*%
X139563000Y-124508500D02*
X139563000Y-145053300D01*
%TO.N,RESET*%
X132825000Y-110501500D02*
X132825000Y-122173300D01*
%TO.N,GPIO1_BTN*%
X136989500Y-143600000D02*
X136989500Y-124526900D01*
%TO.N,SPI_SCK*%
X144482500Y-129712900D02*
X143910300Y-129140700D01*
X143910300Y-129140700D02*
X143910300Y-125835700D01*
X143910300Y-125835700D02*
X148118700Y-121627300D01*
X148118700Y-121627300D02*
X152680300Y-121627300D01*
X152680300Y-121627300D02*
X152848100Y-121795100D01*
%TD*%
M02*
