%TF.GenerationSoftware,KiCad,Pcbnew,9.0.6*%
%TF.CreationDate,2025-12-31T11:43:19-05:00*%
%TF.ProjectId,singingcard,73696e67-696e-4676-9361-72642e6b6963,1.0*%
%TF.SameCoordinates,Original*%
%TF.FileFunction,Copper,L1,Top*%
%TF.FilePolarity,Positive*%
%FSLAX46Y46*%
G04 Gerber Fmt 4.6, Leading zero omitted, Abs format (unit mm)*
G04 Created by KiCad (PCBNEW 9.0.6) date 2025-12-31 11:43:19*
%MOMM*%
%LPD*%
G01*
G04 APERTURE LIST*
G04 Aperture macros list*
%AMRoundRect*
0 Rectangle with rounded corners*
0 $1 Rounding radius*
0 $2 $3 $4 $5 $6 $7 $8 $9 X,Y pos of 4 corners*
0 Add a 4 corners polygon primitive as box body*
4,1,4,$2,$3,$4,$5,$6,$7,$8,$9,$2,$3,0*
0 Add four circle primitives for the rounded corners*
1,1,$1+$1,$2,$3*
1,1,$1+$1,$4,$5*
1,1,$1+$1,$6,$7*
1,1,$1+$1,$8,$9*
0 Add four rect primitives between the rounded corners*
20,1,$1+$1,$2,$3,$4,$5,0*
20,1,$1+$1,$4,$5,$6,$7,0*
20,1,$1+$1,$6,$7,$8,$9,0*
20,1,$1+$1,$8,$9,$2,$3,0*%
G04 Aperture macros list end*
%TA.AperFunction,SMDPad,CuDef*%
%ADD10RoundRect,0.200000X-0.200000X-0.275000X0.200000X-0.275000X0.200000X0.275000X-0.200000X0.275000X0*%
%TD*%
%TA.AperFunction,SMDPad,CuDef*%
%ADD11RoundRect,0.225000X-0.225000X-0.250000X0.225000X-0.250000X0.225000X0.250000X-0.225000X0.250000X0*%
%TD*%
%TA.AperFunction,SMDPad,CuDef*%
%ADD12O,0.630000X2.250000*%
%TD*%
%TA.AperFunction,SMDPad,CuDef*%
%ADD13O,0.270000X1.500000*%
%TD*%
%TA.AperFunction,SMDPad,CuDef*%
%ADD14O,1.500000X0.270000*%
%TD*%
%TA.AperFunction,SMDPad,CuDef*%
%ADD15R,4.200000X3.800000*%
%TD*%
%TA.AperFunction,SMDPad,CuDef*%
%ADD16R,1.700000X1.000000*%
%TD*%
%TA.AperFunction,ComponentPad*%
%ADD17R,1.700000X1.700000*%
%TD*%
%TA.AperFunction,ComponentPad*%
%ADD18C,1.700000*%
%TD*%
%TA.AperFunction,SMDPad,CuDef*%
%ADD19RoundRect,0.250000X-0.250000X-0.475000X0.250000X-0.475000X0.250000X0.475000X-0.250000X0.475000X0*%
%TD*%
%TA.AperFunction,SMDPad,CuDef*%
%ADD20R,2.000000X2.500000*%
%TD*%
%TA.AperFunction,ComponentPad*%
%ADD21C,1.520000*%
%TD*%
%TA.AperFunction,ViaPad*%
%ADD22C,0.600000*%
%TD*%
%TA.AperFunction,Conductor*%
%ADD23C,0.250000*%
%TD*%
G04 APERTURE END LIST*
D10*
%TO.P,R2,1*%
%TO.N,+3V*%
X111175000Y-109500000D03*
%TO.P,R2,2*%
%TO.N,GPIO0_LDR*%
X112825000Y-109500000D03*
%TD*%
D11*
%TO.P,C4,1*%
%TO.N,+3V*%
X131225000Y-115500000D03*
%TO.P,C4,2*%
%TO.N,GND*%
X132775000Y-115500000D03*
%TD*%
%TO.P,C3,1*%
%TO.N,VREG*%
X149225000Y-121500000D03*
%TO.P,C3,2*%
%TO.N,GND*%
X150775000Y-121500000D03*
%TD*%
D12*
%TO.P,U2,1*%
%TO.N,SPI_CS*%
X158090000Y-113030000D03*
%TO.P,U2,2*%
%TO.N,SPI_MISO*%
X159370000Y-113030000D03*
%TO.P,U2,3*%
%TO.N,+3V*%
X160630000Y-113030000D03*
%TO.P,U2,4*%
%TO.N,GND*%
X161900000Y-113030000D03*
%TO.P,U2,5*%
%TO.N,SPI_MOSI*%
X161900000Y-105970000D03*
%TO.P,U2,6*%
%TO.N,SPI_SCK*%
X160630000Y-105970000D03*
%TO.P,U2,7*%
%TO.N,+3V*%
X159370000Y-105970000D03*
%TO.P,U2,8*%
X158090000Y-105970000D03*
%TD*%
D11*
%TO.P,C1,1*%
%TO.N,+3V*%
X125225000Y-121500000D03*
%TO.P,C1,2*%
%TO.N,GND*%
X126775000Y-121500000D03*
%TD*%
D13*
%TO.P,U1,1*%
%TO.N,N/C*%
X135250000Y-131750000D03*
%TO.P,U1,2*%
%TO.N,CSB*%
X135750000Y-131750000D03*
%TO.P,U1,3*%
%TO.N,N/C*%
X136250000Y-131750000D03*
%TO.P,U1,4*%
X136750000Y-131750000D03*
%TO.P,U1,5*%
X137250000Y-131750000D03*
%TO.P,U1,6*%
X137750000Y-131750000D03*
%TO.P,U1,7*%
X138250000Y-131750000D03*
%TO.P,U1,8*%
X138750000Y-131750000D03*
%TO.P,U1,9*%
X139250000Y-131750000D03*
%TO.P,U1,10*%
%TO.N,GND*%
X139750000Y-131750000D03*
%TO.P,U1,11*%
%TO.N,+3V*%
X140250000Y-131750000D03*
%TO.P,U1,12*%
%TO.N,VREG*%
X140750000Y-131750000D03*
D14*
%TO.P,U1,13*%
%TO.N,SPI_MISO*%
X142250000Y-130250000D03*
%TO.P,U1,14*%
%TO.N,SPI_SCK*%
X142250000Y-129750000D03*
%TO.P,U1,15*%
%TO.N,SPI_CS*%
X142250000Y-129250000D03*
%TO.P,U1,16*%
%TO.N,SPI_MOSI*%
X142250000Y-128750000D03*
%TO.P,U1,17*%
%TO.N,+3V*%
X142250000Y-128250000D03*
%TO.P,U1,18*%
%TO.N,N$1*%
X142250000Y-127750000D03*
%TO.P,U1,19*%
%TO.N,N/C*%
X142250000Y-127250000D03*
%TO.P,U1,20*%
%TO.N,N$2*%
X142250000Y-126750000D03*
%TO.P,U1,21*%
%TO.N,+3V*%
X142250000Y-126250000D03*
%TO.P,U1,22*%
%TO.N,N/C*%
X142250000Y-125750000D03*
%TO.P,U1,23*%
X142250000Y-125250000D03*
%TO.P,U1,24*%
X142250000Y-124750000D03*
D13*
%TO.P,U1,25*%
X140750000Y-123250000D03*
%TO.P,U1,26*%
X140250000Y-123250000D03*
%TO.P,U1,27*%
%TO.N,RESET*%
X139750000Y-123250000D03*
%TO.P,U1,28*%
%TO.N,N/C*%
X139250000Y-123250000D03*
%TO.P,U1,29*%
X138750000Y-123250000D03*
%TO.P,U1,30*%
X138250000Y-123250000D03*
%TO.P,U1,31*%
%TO.N,GPIO2_TAB*%
X137750000Y-123250000D03*
%TO.P,U1,32*%
%TO.N,GPIO1_BTN*%
X137250000Y-123250000D03*
%TO.P,U1,33*%
%TO.N,N/C*%
X136750000Y-123250000D03*
%TO.P,U1,34*%
X136250000Y-123250000D03*
%TO.P,U1,35*%
X135750000Y-123250000D03*
%TO.P,U1,36*%
X135250000Y-123250000D03*
D14*
%TO.P,U1,37*%
X133750000Y-124750000D03*
%TO.P,U1,38*%
%TO.N,GPIO0_LDR*%
X133750000Y-125250000D03*
%TO.P,U1,39*%
%TO.N,N/C*%
X133750000Y-125750000D03*
%TO.P,U1,40*%
X133750000Y-126250000D03*
%TO.P,U1,41*%
X133750000Y-126750000D03*
%TO.P,U1,42*%
X133750000Y-127250000D03*
%TO.P,U1,43*%
%TO.N,+3V*%
X133750000Y-127750000D03*
%TO.P,U1,44*%
%TO.N,GND*%
X133750000Y-128250000D03*
%TO.P,U1,45*%
%TO.N,N/C*%
X133750000Y-128750000D03*
%TO.P,U1,46*%
X133750000Y-129250000D03*
%TO.P,U1,47*%
X133750000Y-129750000D03*
%TO.P,U1,48*%
X133750000Y-130250000D03*
%TD*%
D15*
%TO.P,BT1,1*%
%TO.N,+3V*%
X181390000Y-127500000D03*
%TO.P,BT1,2*%
%TO.N,GND*%
X152610000Y-127500000D03*
%TD*%
D16*
%TO.P,SW1,1*%
%TO.N,GPIO1_BTN*%
X162850000Y-143600000D03*
X169150000Y-143600000D03*
%TO.P,SW1,2*%
%TO.N,GND*%
X162850000Y-147400000D03*
X169150000Y-147400000D03*
%TD*%
D17*
%TO.P,J2,1*%
%TO.N,GPIO2_TAB*%
X150000000Y-147000000D03*
D18*
%TO.P,J2,2*%
%TO.N,GND*%
X150000000Y-149540000D03*
%TD*%
D19*
%TO.P,C2,1*%
%TO.N,+3V*%
X125050000Y-133500000D03*
%TO.P,C2,2*%
%TO.N,GND*%
X126950000Y-133500000D03*
%TD*%
D10*
%TO.P,R3,1*%
%TO.N,+3V*%
X131175000Y-109500000D03*
%TO.P,R3,2*%
%TO.N,RESET*%
X132825000Y-109500000D03*
%TD*%
D19*
%TO.P,C5,1*%
%TO.N,+3V*%
X149050000Y-133500000D03*
%TO.P,C5,2*%
%TO.N,GND*%
X150950000Y-133500000D03*
%TD*%
D20*
%TO.P,LS1,1*%
%TO.N,N$1*%
X109300000Y-141850000D03*
%TO.P,LS1,2*%
%TO.N,N$2*%
X120700000Y-141850000D03*
%TO.P,LS1,3*%
%TO.N,N/C*%
X120700000Y-133150000D03*
%TO.P,LS1,4*%
X109300000Y-133150000D03*
%TD*%
D21*
%TO.P,R1,1*%
%TO.N,GPIO0_LDR*%
X112000000Y-117800000D03*
%TO.P,R1,2*%
%TO.N,GND*%
X112000000Y-121200000D03*
%TD*%
D11*
%TO.P,C6,1*%
%TO.N,+3V*%
X159225000Y-117500000D03*
%TO.P,C6,2*%
%TO.N,GND*%
X160775000Y-117500000D03*
%TD*%
D10*
%TO.P,R4,1*%
%TO.N,+3V*%
X131175000Y-145500000D03*
%TO.P,R4,2*%
%TO.N,CSB*%
X132825000Y-145500000D03*
%TD*%
D22*
%TO.N,GND*%
X155216000Y-124787900D03*
X138769500Y-128413600D03*
X138769500Y-133326700D03*
X152117500Y-133310200D03*
X138629300Y-115837900D03*
%TO.N,GPIO1_BTN*%
X141479400Y-124103000D03*
X146165100Y-141316400D03*
%TO.N,GPIO2_TAB*%
X137750000Y-121992100D03*
%TO.N,N$1*%
X144168900Y-127750000D03*
X149009500Y-144311100D03*
%TO.N,N$2*%
X129988900Y-141850000D03*
X136390500Y-129556300D03*
%TO.N,SPI_CS*%
X145156200Y-129225600D03*
X145156200Y-113030000D03*
%TO.N,SPI_MISO*%
X140609600Y-129711800D03*
X140609600Y-114481700D03*
%TO.N,SPI_MOSI*%
X146094600Y-103882900D03*
X146094600Y-127488200D03*
%TO.N,SPI_SCK*%
X154006600Y-104518300D03*
X149519400Y-129856700D03*
%TO.N,VREG*%
X142501000Y-131750000D03*
X142501000Y-121500000D03*
%TD*%
D23*
%TO.N,+3V*%
X128641000Y-137091000D02*
X135058700Y-130673300D01*
X135058700Y-130673300D02*
X139365300Y-130673300D01*
X141173300Y-130673300D02*
X140250000Y-130673300D01*
X130770400Y-114692600D02*
X125225000Y-120238000D01*
X143326700Y-126250000D02*
X143326700Y-124229500D01*
X131175000Y-109500000D02*
X131175000Y-114692600D01*
X149014100Y-131314000D02*
X150362100Y-129966000D01*
X141395400Y-126336600D02*
X141214400Y-126336600D01*
X148471500Y-130771500D02*
X141271500Y-130771500D01*
X142788400Y-126250000D02*
X143326700Y-126250000D01*
X158090000Y-105970000D02*
X159370000Y-105970000D01*
X141214400Y-126336600D02*
X141212900Y-126338100D01*
X150362100Y-129750500D02*
X146899900Y-126288300D01*
X131225000Y-115500000D02*
X131225000Y-114742600D01*
X131175000Y-139625000D02*
X128641000Y-137091000D01*
X131175000Y-114692600D02*
X130770400Y-114692600D01*
X131175000Y-108697200D02*
X155362800Y-108697200D01*
X181390000Y-127500000D02*
X181390000Y-129726700D01*
X139934700Y-126338100D02*
X138522800Y-127750000D01*
X111175000Y-109500000D02*
X111977800Y-108697200D01*
X160630000Y-116095000D02*
X160630000Y-113030000D01*
X149014100Y-131314000D02*
X148471500Y-130771500D01*
X160630000Y-109339000D02*
X159370000Y-108079000D01*
X149050000Y-131350000D02*
X149014100Y-131314000D01*
X131175000Y-145500000D02*
X131175000Y-139625000D01*
X111977800Y-108697200D02*
X131175000Y-108697200D01*
X138522800Y-127750000D02*
X133750000Y-127750000D01*
X159370000Y-108079000D02*
X159370000Y-105970000D01*
X139807700Y-130230900D02*
X139913700Y-130124900D01*
X139913700Y-130124900D02*
X139913700Y-129464500D01*
X141212900Y-126338100D02*
X139934700Y-126338100D01*
X141828300Y-121283200D02*
X145611500Y-117500000D01*
X141271500Y-130771500D02*
X141173300Y-130673300D01*
X149050000Y-133500000D02*
X149050000Y-131350000D01*
X141443700Y-126288300D02*
X141395400Y-126336600D01*
X139365300Y-130673300D02*
X139807700Y-130230900D01*
X125225000Y-120238000D02*
X125225000Y-121500000D01*
X139913700Y-129464500D02*
X141128200Y-128250000D01*
X141828300Y-122731100D02*
X141828300Y-121283200D01*
X160630000Y-113030000D02*
X160630000Y-109339000D01*
X143326700Y-126288300D02*
X141443700Y-126288300D01*
X141128200Y-128250000D02*
X142250000Y-128250000D01*
X128641000Y-137091000D02*
X125050000Y-133500000D01*
X143326700Y-126250000D02*
X143326700Y-126288300D01*
X139807700Y-130230900D02*
X140250000Y-130673300D01*
X155362800Y-108697200D02*
X158090000Y-105970000D01*
X145611500Y-117500000D02*
X159225000Y-117500000D01*
X159225000Y-117500000D02*
X160630000Y-116095000D01*
X143326700Y-124229500D02*
X141828300Y-122731100D01*
X181366200Y-129750500D02*
X181390000Y-129726700D01*
X131175000Y-108697200D02*
X131175000Y-109500000D01*
X150362100Y-129966000D02*
X150362100Y-129750500D01*
X140250000Y-131750000D02*
X140250000Y-130673300D01*
X142788400Y-126250000D02*
X142250000Y-126250000D01*
X146899900Y-126288300D02*
X143326700Y-126288300D01*
X131225000Y-114742600D02*
X131175000Y-114692600D01*
X150362100Y-129750500D02*
X181366200Y-129750500D01*
%TO.N,CSB*%
X135750000Y-142575000D02*
X132825000Y-145500000D01*
X135750000Y-131750000D02*
X135750000Y-142575000D01*
%TO.N,GND*%
X156775000Y-121500000D02*
X152610000Y-121500000D01*
X126950000Y-133500000D02*
X126950000Y-128250000D01*
X161900000Y-113030000D02*
X161900000Y-116375000D01*
X152610000Y-121500000D02*
X150775000Y-121500000D01*
X160775000Y-117500000D02*
X156775000Y-121500000D01*
X161900000Y-116375000D02*
X160775000Y-117500000D01*
X149856900Y-134593100D02*
X141016400Y-134593100D01*
X152117500Y-133310200D02*
X151139800Y-133310200D01*
X162850000Y-147400000D02*
X152140000Y-147400000D01*
X139750000Y-131750000D02*
X139750000Y-132826700D01*
X126950000Y-128250000D02*
X119050000Y-128250000D01*
X126950000Y-128250000D02*
X133750000Y-128250000D01*
X141016400Y-134593100D02*
X139750000Y-133326700D01*
X150950000Y-133500000D02*
X149856900Y-134593100D01*
X139750000Y-133326700D02*
X139750000Y-132826700D01*
X138769500Y-128413600D02*
X138605900Y-128250000D01*
X152610000Y-124787900D02*
X155216000Y-124787900D01*
X119050000Y-128250000D02*
X112000000Y-121200000D01*
X133112900Y-115837900D02*
X132775000Y-115500000D01*
X152610000Y-124787900D02*
X152610000Y-127500000D01*
X132775000Y-115500000D02*
X126775000Y-121500000D01*
X169150000Y-147400000D02*
X162850000Y-147400000D01*
X138629300Y-115837900D02*
X133112900Y-115837900D01*
X138605900Y-128250000D02*
X133750000Y-128250000D01*
X152140000Y-147400000D02*
X150000000Y-149540000D01*
X139750000Y-133326700D02*
X138769500Y-133326700D01*
X152610000Y-121500000D02*
X152610000Y-124787900D01*
X151139800Y-133310200D02*
X150950000Y-133500000D01*
%TO.N,GPIO0_LDR*%
X119450000Y-125250000D02*
X112000000Y-117800000D01*
X112825000Y-109500000D02*
X112825000Y-116975000D01*
X133750000Y-125250000D02*
X119450000Y-125250000D01*
X112825000Y-116975000D02*
X112000000Y-117800000D01*
%TO.N,GPIO1_BTN*%
X137250000Y-124326700D02*
X141255700Y-124326700D01*
X169150000Y-143600000D02*
X162850000Y-143600000D01*
X159389700Y-141316400D02*
X161673300Y-143600000D01*
X146165100Y-141316400D02*
X159389700Y-141316400D01*
X137250000Y-123250000D02*
X137250000Y-124326700D01*
X162850000Y-143600000D02*
X161673300Y-143600000D01*
X141255700Y-124326700D02*
X141479400Y-124103000D01*
%TO.N,GPIO2_TAB*%
X137750000Y-121992100D02*
X137750000Y-123250000D01*
%TO.N,N$1*%
X115095600Y-146318900D02*
X110626700Y-141850000D01*
X142250000Y-127750000D02*
X144168900Y-127750000D01*
X149009500Y-144311100D02*
X147001700Y-146318900D01*
X109300000Y-141850000D02*
X110626700Y-141850000D01*
X147001700Y-146318900D02*
X115095600Y-146318900D01*
%TO.N,N$2*%
X138675700Y-129556300D02*
X141443700Y-126788300D01*
X141443700Y-126788300D02*
X142211700Y-126788300D01*
X142211700Y-126788300D02*
X142250000Y-126750000D01*
X136390500Y-129556300D02*
X138675700Y-129556300D01*
X120700000Y-141850000D02*
X129988900Y-141850000D01*
%TO.N,RESET*%
X139750000Y-116072300D02*
X133177700Y-109500000D01*
X133177700Y-109500000D02*
X132825000Y-109500000D01*
X139750000Y-123250000D02*
X139750000Y-116072300D01*
%TO.N,SPI_CS*%
X142250000Y-129250000D02*
X145131800Y-129250000D01*
X158090000Y-113030000D02*
X145156200Y-113030000D01*
X145131800Y-129250000D02*
X145156200Y-129225600D01*
%TO.N,SPI_MISO*%
X159370000Y-113030000D02*
X159370000Y-114481700D01*
X141482000Y-130250000D02*
X140943800Y-129711800D01*
X142250000Y-130250000D02*
X141482000Y-130250000D01*
X159370000Y-114481700D02*
X140609600Y-114481700D01*
X140943800Y-129711800D02*
X140609600Y-129711800D01*
%TO.N,SPI_MOSI*%
X144474500Y-128750000D02*
X145736300Y-127488200D01*
X161900000Y-104518300D02*
X161264600Y-103882900D01*
X142250000Y-128750000D02*
X144474500Y-128750000D01*
X161264600Y-103882900D02*
X146094600Y-103882900D01*
X145736300Y-127488200D02*
X146094600Y-127488200D01*
X161900000Y-105970000D02*
X161900000Y-104518300D01*
%TO.N,SPI_SCK*%
X160630000Y-104518300D02*
X154006600Y-104518300D01*
X160630000Y-105970000D02*
X160630000Y-104518300D01*
X149519400Y-129856700D02*
X144723200Y-129856700D01*
X144723200Y-129856700D02*
X144616500Y-129750000D01*
X144616500Y-129750000D02*
X142250000Y-129750000D01*
%TO.N,VREG*%
X149225000Y-121500000D02*
X142501000Y-121500000D01*
X140750000Y-131750000D02*
X142501000Y-131750000D01*
%TD*%
M02*
